<?xml version="1.0" encoding="UTF-8" standalone="no"?>
<!-- Created with Inkscape (http://www.inkscape.org/) -->

<svg
   width="1100"
   height="700"
   viewBox="0 0 291.04167 185.20832"
   version="1.1"
   id="svg1"
   xml:space="preserve"
   inkscape:version="1.3.2 (091e20ef0f, 2023-11-25)"
   sodipodi:docname="cover.svg"
   inkscape:export-filename="hero.png"
   inkscape:export-xdpi="96"
   inkscape:export-ydpi="96"
   xmlns:inkscape="http://www.inkscape.org/namespaces/inkscape"
   xmlns:sodipodi="http://sodipodi.sourceforge.net/DTD/sodipodi-0.dtd"
   xmlns:xlink="http://www.w3.org/1999/xlink"
   xmlns="http://www.w3.org/2000/svg"
   xmlns:svg="http://www.w3.org/2000/svg"><sodipodi:namedview
     id="namedview1"
     pagecolor="#ffffff"
     bordercolor="#666666"
     borderopacity="1.0"
     inkscape:showpageshadow="2"
     inkscape:pageopacity="0.0"
     inkscape:pagecheckerboard="0"
     inkscape:deskcolor="#d1d1d1"
     inkscape:document-units="mm"
     inkscape:zoom="0.66344428"
     inkscape:cx="503.43339"
     inkscape:cy="219.31005"
     inkscape:window-width="2256"
     inkscape:window-height="1427"
     inkscape:window-x="0"
     inkscape:window-y="0"
     inkscape:window-maximized="1"
     inkscape:current-layer="layer1" /><defs
     id="defs1"><linearGradient
       id="linearGradient1"
       inkscape:collect="always"><stop
         style="stop-color:#000000;stop-opacity:0.35294119;"
         offset="0.25146925"
         id="stop1" /><stop
         style="stop-color:#000000;stop-opacity:1;"
         offset="1"
         id="stop2" /></linearGradient><rect
       x="97.351137"
       y="135.84044"
       width="896.2143"
       height="382.98229"
       id="rect3" /><rect
       x="151.08224"
       y="218.16208"
       width="687.00445"
       height="309.40058"
       id="rect2" /><rect
       x="84.99316"
       y="217.7817"
       width="938.08281"
       height="294.11455"
       id="rect1" /><marker
       inkscape:stockid="Arrow2Lend"
       orient="auto"
       refY="0"
       refX="0"
       id="Arrow2Lend"
       style="overflow:visible"><path
         id="path3650"
         style="font-size:12px;fill-rule:evenodd;stroke-width:0.625;stroke-linejoin:round"
         d="M 8.7185878,4.0337352 -2.2072895,0.01601326 8.7185884,-4.0017078 c -1.7454984,2.3720609 -1.7354408,5.6174519 -6e-7,8.035443 z"
         transform="matrix(-1.1,0,0,-1.1,-1.1,0)" /></marker><inkscape:perspective
       sodipodi:type="inkscape:persp3d"
       inkscape:vp_x="0 : 526.18109 : 1"
       inkscape:vp_y="0 : 1000 : 0"
       inkscape:vp_z="744.09448 : 526.18109 : 1"
       inkscape:persp3d-origin="372.04724 : 350.78739 : 1"
       id="perspective10" /><inkscape:perspective
       id="perspective2824"
       inkscape:persp3d-origin="0.5 : 0.33333333 : 1"
       inkscape:vp_z="1 : 0.5 : 1"
       inkscape:vp_y="0 : 1000 : 0"
       inkscape:vp_x="0 : 0.5 : 1"
       sodipodi:type="inkscape:persp3d" /><inkscape:perspective
       id="perspective4301"
       inkscape:persp3d-origin="0.5 : 0.33333333 : 1"
       inkscape:vp_z="1 : 0.5 : 1"
       inkscape:vp_y="0 : 1000 : 0"
       inkscape:vp_x="0 : 0.5 : 1"
       sodipodi:type="inkscape:persp3d" /><inkscape:perspective
       id="perspective4323"
       inkscape:persp3d-origin="0.5 : 0.33333333 : 1"
       inkscape:vp_z="1 : 0.5 : 1"
       inkscape:vp_y="0 : 1000 : 0"
       inkscape:vp_x="0 : 0.5 : 1"
       sodipodi:type="inkscape:persp3d" /><inkscape:perspective
       id="perspective4353"
       inkscape:persp3d-origin="0.5 : 0.33333333 : 1"
       inkscape:vp_z="1 : 0.5 : 1"
       inkscape:vp_y="0 : 1000 : 0"
       inkscape:vp_x="0 : 0.5 : 1"
       sodipodi:type="inkscape:persp3d" /><inkscape:perspective
       id="perspective4379"
       inkscape:persp3d-origin="0.5 : 0.33333333 : 1"
       inkscape:vp_z="1 : 0.5 : 1"
       inkscape:vp_y="0 : 1000 : 0"
       inkscape:vp_x="0 : 0.5 : 1"
       sodipodi:type="inkscape:persp3d" /><inkscape:perspective
       id="perspective4379-9"
       inkscape:persp3d-origin="0.5 : 0.33333333 : 1"
       inkscape:vp_z="1 : 0.5 : 1"
       inkscape:vp_y="0 : 1000 : 0"
       inkscape:vp_x="0 : 0.5 : 1"
       sodipodi:type="inkscape:persp3d" /><inkscape:perspective
       id="perspective4416"
       inkscape:persp3d-origin="0.5 : 0.33333333 : 1"
       inkscape:vp_z="1 : 0.5 : 1"
       inkscape:vp_y="0 : 1000 : 0"
       inkscape:vp_x="0 : 0.5 : 1"
       sodipodi:type="inkscape:persp3d" /><linearGradient
       inkscape:collect="always"
       xlink:href="#linearGradient1"
       id="linearGradient2"
       x1="43.129308"
       y1="88.800944"
       x2="250.06643"
       y2="88.800944"
       gradientUnits="userSpaceOnUse" /></defs><g
     inkscape:label="Layer 1"
     inkscape:groupmode="layer"
     id="layer1"><path
       style="fill:#e4e4e4;stroke:none;stroke-width:0.367627px;stroke-linecap:butt;stroke-linejoin:miter;stroke-opacity:1;fill-opacity:1"
       d="m 101.4365,74.3217 c 8.65423,-5.507198 17.49267,-11.375112 26.83075,-16.061303 l 0.55705,-0.371344 c 4.7681,-2.86088 7.61286,-6.980299 7.61288,-12.440548 -1e-5,-2.159774 -0.37139,-2.977627 -0.37138,-5.013371 0,-3.200314 -1.11418,-8.170254 -1.94962,-12.533381 -0.35491,-1.853441 -2.41386,-3.825979 -2.41384,-5.756078 0.39493,-3.713382 9.86631,3.644003 11.04795,4.920516 2.47056,2.470559 11.79065,16.445889 12.71906,19.589213 4.67534,6.952146 13.84819,14.646896 20.51764,16.432691 l 15.22575,3.342236 c 5.51467,0.834985 5.94799,0.443414 11.51214,0.742714 3.88586,0.209015 8.23618,-1.100845 12.34773,-0.278514 18.24163,1.938436 25.66436,7.394071 33.51519,17.361056 0.82926,1.611818 1.69656,2.780013 1.09417,3.340395 -1.5286,1.422082 -2.39675,0.889871 -1.8316,2.047174 0.5177,1.060189 -1.57002,2.934615 -2.23344,3.153709 l -0.55707,-2.2e-5 c -9.06988,4.180924 -19.47649,4.203198 -29.52305,8.912657 l -4.27065,1.67111 c -7.85153,3.05995 -15.73468,4.81537 -23.76704,6.49879 l -19.03218,-0.4642 c -13.85333,-1e-5 -10.13004,-0.0954 -23.9527,-2.04247 l -0.64988,-0.27852 c -17.37078,-2.99457 -28.36124,-7.731975 -45.491576,1.85679 l -5.013361,2.97087 c -5.834191,4.70512 -9.205334,8.17832 -13.461794,14.39019 -1.04619,3.46593 0.392575,6.44072 2.564749,9.65907 3.079184,3.83439 7.947648,8.02665 8.832446,11.42216 0.367701,4.49449 -0.89229,6.95437 -2.484562,8.99891 -1.635423,-1.80681 -5.418202,-4.1996 -6.87015,-4.45631 C 76.648314,151.00028 68.40338,146.8896 67.64277,141.35214 l -0.371344,-0.7427 C 59.008552,142.43752 51.249945,130.9155 43.5044,130.21136 l -0.185678,-0.74271 c 3.268237,-13.20822 18.493989,-3.47741 27.387759,-7.52006 1.749903,-1.28287 1.963505,-2.24524 2.321023,-3.9921 3.554986,-9.53424 4.71581,-16.79379 9.933862,-25.345309 l 0.37137,-0.557029 C 86.230371,86.29975 94.814746,78.511711 101.4365,74.3217 Z"
       id="path2832"
       sodipodi:nodetypes="cccccscccccsccssccccccccccccccsccccccccc" /><path
       sodipodi:nodetypes="cccccscccccccccccccscccccsccscccccsccsssccssccsccsssssssccsscc"
       id="path2840"
       d="m 93.359423,111.92187 c -5.834191,4.70512 -9.205334,8.17832 -13.461794,14.39019 -1.04619,3.46593 0.392575,6.44072 2.564749,9.65907 3.079184,3.83439 7.947648,8.02665 8.832446,11.42216 0.367701,4.49449 -0.89229,6.95437 -2.484562,8.99891 -1.635423,-1.80681 -5.418202,-4.1996 -6.87015,-4.45631 C 76.648314,151.00028 68.40338,146.8896 67.64277,141.35214 l -0.371344,-0.7427 C 59.008552,142.43752 51.249945,130.9155 43.5044,130.21136 l -0.185678,-0.74271 c 3.268237,-13.20822 18.493989,-3.47741 27.387759,-7.52006 1.749903,-1.28287 1.963505,-2.24524 2.321023,-3.9921 3.554986,-9.53424 4.71581,-16.79379 9.933862,-25.345309 l 0.37137,-0.557029 C 86.230371,86.29975 94.814746,78.511711 101.4365,74.3217 c 8.65423,-5.507198 17.49267,-11.375112 26.83075,-16.061303 l 0.55705,-0.371344 c 4.7681,-2.86088 7.61286,-6.980299 7.61288,-12.440548 -1e-5,-2.159774 -0.37139,-2.977627 -0.37138,-5.013371 0,-3.200314 -1.11418,-8.170254 -1.94962,-12.533381 -0.35491,-1.853441 -2.41386,-3.825979 -2.41384,-5.756078 0.39493,-3.713382 9.86631,3.644003 11.04795,4.920516 2.47056,2.470559 11.79065,16.445889 12.71906,19.589213 4.67534,6.952146 13.84819,14.646896 20.51764,16.432691 l 15.22575,3.342236 c 5.51467,0.834985 5.94799,0.443414 11.51214,0.742714 3.88586,0.209015 8.23618,-1.100845 12.34773,-0.278514 18.24163,1.938436 25.66436,7.394071 33.51519,17.361056 0.82926,1.611818 1.69656,2.780013 1.09417,3.340395 -1.5286,1.422082 -2.39675,0.889871 -1.8316,2.047174 -1.13107,-1.330062 -2.66309,-2.784256 -4.30039,-3.608032 -6.99955,-4.316511 -13.25661,-2.399346 -19.47462,-3.619799 l 1.18163,-1.575566 c -4.19978,-0.159984 -8.49646,-1.192245 -12.53871,0.06565 -4.04029,0.20053 -7.2102,4.148117 -9.18149,6.438932 -2.12213,2.466147 -6.42506,2.266662 -8.806,7.609699 l -0.98473,3.610608 c -1.71733,3.572782 -5.52334,9.291922 -10.49528,14.450532 -1.73627,1.8014 -2.64269,2.98101 -4.34109,3.93086 -7.27544,4.06873 -11.34867,-8.82364 -9.58457,-14.17991 2.07385,-6.296877 13.99021,-11.702812 18.447,-14.376886 l 3.87325,-2.29766 c -2.1725,0.564363 -4.76945,1.992269 -6.69612,3.019787 -2.44571,1.304405 -6.61869,3.03958 -8.79677,4.59535 -3.27208,2.337184 -6.15338,4.534088 -9.51893,5.842639 -10.35358,6.2192 -21.67389,-0.537857 -27.96591,-3.413651 -3.82241,-1.800408 -6.70434,-4.807063 -9.71588,-7.746443 -1.98151,-1.93404 -6.71275,-7.255553 -9.58456,-7.746423 -1.28506,-0.640621 -2.98655,-0.8648 -4.79229,-0.984723 -4.15463,-0.240951 -8.52894,2.866148 -11.59674,6.000958 -4.233663,4.326107 -5.188954,7.294102 -2.51753,7.456825 0.32275,0.01967 3.37633,-0.750401 3.61064,-0.984704 0.40075,-0.400758 6.77487,-2.625933 7.61512,-2.625922 1.32777,1.1e-5 3.73373,-0.299245 5.18618,-0.06564 3.93643,0.633098 8.98737,2.745761 5.44875,7.024301 -0.93857,1.134843 -3.03293,1.724911 -4.46405,2.100725 -4.60358,1.208976 -9.01904,1.984647 -11.88222,2.691577 -2.07205,0.47625 -4.00668,1.50256 -5.77701,2.36331 -2.954415,1.59753 -4.715615,2.48909 -7.221268,4.72662 -2.090046,1.86644 -4.028946,4.85793 -3.938855,4.85795 2.345021,0 6.379272,-3.75491 8.402914,-3.93887 z"
       style="fill:url(#linearGradient2);stroke:none;stroke-width:0.367627px;stroke-linecap:butt;stroke-linejoin:miter;stroke-opacity:1" /><path
       style="fill:#ffffff;stroke:none;stroke-width:0.367627px;stroke-linecap:butt;stroke-linejoin:miter;stroke-opacity:1"
       d="m 223.62204,76.133698 c -1.21571,-0.589693 -5.17336,-2.820092 -8.07211,-2.636362 -3.40606,0.215907 -7.25406,2.143627 -7.80351,2.729214 -0.54663,0.582502 0.64882,0.245818 2.56254,0.764683 1.81373,0.491753 3.97262,1.162423 6.40676,0.506297 1.24666,-0.589388 6.50288,-0.8276 6.90632,-1.363832 z"
       id="path2838"
       sodipodi:nodetypes="cssscc" /><path
       style="fill:#000000;fill-opacity:0.581662;stroke:none;stroke-width:0.367627px;stroke-linecap:butt;stroke-linejoin:miter;stroke-opacity:1"
       d="m 186.0964,109.86292 -2.34381,2.62552 -0.53865,3.03965 c -1.1142,5.19644 -0.98917,7.23807 1.3893,9.95969 2.05379,2.35013 4.92783,2.79893 7.02117,1.51744 1.94339,-1.18967 3.13226,-1.94587 5.04411,-4.11793 0.90454,-1.02765 2.00669,-2.17368 3.10211,-3.65858 1.29357,-1.75322 3.24736,-6.91069 4.6939,-9.34062 1.43625,-2.41263 3.0698,-5.15805 2.88397,-5.0843 -0.47398,0.18811 -5.10102,1.64189 -6.18842,1.88499 -5.46103,1.22098 -9.9805,2.75773 -15.06368,3.17414 z"
       id="path2842"
       sodipodi:nodetypes="cccsssssssc" /></g></svg>
