<?xml version="1.0" encoding="UTF-8" standalone="no"?>
<!-- Created with Inkscape (http://www.inkscape.org/) -->

<svg
   width="1100"
   height="700"
   viewBox="0 0 291.04166 185.20833"
   version="1.1"
   id="svg5"
   xml:space="preserve"
   inkscape:version="1.2.2 (b0a8486541, 2022-12-01)"
   sodipodi:docname="hero.svg"
   inkscape:export-filename="thumbnail.png"
   inkscape:export-xdpi="48"
   inkscape:export-ydpi="48"
   xmlns:inkscape="http://www.inkscape.org/namespaces/inkscape"
   xmlns:sodipodi="http://sodipodi.sourceforge.net/DTD/sodipodi-0.dtd"
   xmlns:xlink="http://www.w3.org/1999/xlink"
   xmlns="http://www.w3.org/2000/svg"
   xmlns:svg="http://www.w3.org/2000/svg"><sodipodi:namedview
     id="namedview7"
     pagecolor="#ffffff"
     bordercolor="#666666"
     borderopacity="1.0"
     inkscape:showpageshadow="2"
     inkscape:pageopacity="0.0"
     inkscape:pagecheckerboard="0"
     inkscape:deskcolor="#d1d1d1"
     inkscape:document-units="mm"
     showgrid="false"
     inkscape:zoom="0.2973261"
     inkscape:cx="647.43728"
     inkscape:cy="306.06126"
     inkscape:window-width="1128"
     inkscape:window-height="683"
     inkscape:window-x="0"
     inkscape:window-y="0"
     inkscape:window-maximized="1"
     inkscape:current-layer="layer1" /><defs
     id="defs2"><linearGradient
       id="Gradient"
       x1="0"
       x2="0"
       y1="0"
       y2="256"
       gradientUnits="userSpaceOnUse"
       gradientTransform="matrix(0.35341343,0,0,0.35341343,-137.84108,73.241839)"><stop
         offset="0%"
         style="stop-color:#99C1F1;stop-opacity:1"
         id="stop210" /><stop
         offset="100%"
         style="stop-color:#1C71D8;stop-opacity:1"
         id="stop212" /></linearGradient><filter
       id="alpha-to-white"
       x="0"
       y="0"
       width="1"
       height="1"><feColorMatrix
         in="SourceGraphic"
         type="matrix"
         values="0 0 0 0 1 0 0 0 0 1 0 0 0 0 1 0 0 0 1 0"
         id="feColorMatrix215" /></filter><g
       id="child-svg"><svg
         width="16"
         height="16"
         version="1.1"
         id="svg220"><path
           d="M6.5 1.031c-.371 0-.742-.035-1.11.016-.367.05-.73.203-.972.476-.125.141-.215.309-.266.485-.047.18-.054.367-.02.55.032.184.102.356.192.516.09.164.203.309.317.457L5 4H2a1.8 1.8 0 00-.41.035.791.791 0 00-.36.195.791.791 0 00-.195.36C1 4.723 1 4.863 1 5v2.75l.77-.344c.265-.117.542-.23.832-.242.289-.016.586.074.812.254.227.18.383.441.465.723.082.277.101.57.121.859.02.316.04.637-.016.95-.058.312-.199.616-.43.831a1.264 1.264 0 01-.874.32c-.317-.007-.618-.128-.91-.257L1 10.5V14c0 .137.004.277.035.41a.791.791 0 00.195.36c.098.097.227.16.36.195.133.035.273.035.41.035h3l-.328-.68c-.14-.293-.274-.597-.29-.922-.015-.32.095-.652.31-.894.214-.242.523-.39.84-.453.316-.067.644-.059.968-.059.324 0 .652-.008.969.059.316.062.625.21.84.453.214.242.324.574.308.894-.015.325-.148.63-.289.922L8 15h3a1.8 1.8 0 00.41-.035.791.791 0 00.36-.195.791.791 0 00.195-.36C12 14.277 12 14.137 12 14v-3.563l.703.297c.29.125.59.239.902.246.313.004.63-.101.864-.308.238-.203.386-.496.46-.8C15 9.565 15 9.25 15 8.937c0-.313 0-.63-.07-.934-.075-.305-.223-.598-.461-.8a1.288 1.288 0 00-.864-.31c-.312.008-.613.122-.902.247L12 7.437V5a1.8 1.8 0 00-.035-.41.791.791 0 00-.195-.36.791.791 0 00-.36-.195C11.277 4 11.137 4 11 4H8l.36-.469c.113-.148.226-.293.316-.457.09-.16.16-.332.191-.515a1.248 1.248 0 00-.02-.551 1.256 1.256 0 00-.265-.485c-.242-.273-.605-.425-.973-.476-.367-.05-.738-.016-1.109-.016zm0 0"
           fill="#474747"
           id="path218" /></svg></g></defs><g
     inkscape:label="Layer 1"
     inkscape:groupmode="layer"
     id="layer1"><rect
       width="90.473831"
       height="90.473831"
       fill="url(#Gradient)"
       ry="45.236916"
       x="-137.84108"
       y="73.241837"
       id="rect225"
       style="fill:url(#Gradient);stroke-width:0.353413"
       transform="rotate(-90)" /><use
       xlink:href="#child-svg"
       filter="url(#alpha-to-white)"
       transform="matrix(2.8273074,0,0,2.8273074,97.980777,67.865228)"
       id="use227" /><text
       xml:space="preserve"
       style="font-weight:bold;font-size:89.2662px;line-height:1.25;font-family:Cantarell;-inkscape-font-specification:'Cantarell Bold';text-align:center;word-spacing:0px;text-anchor:middle;fill:#1c71d8;fill-opacity:1;stroke:none;stroke-width:5.57913;stroke-opacity:1"
       x="225.7415"
       y="123.22247"
       id="text465"><tspan
         sodipodi:role="line"
         id="tspan463"
         style="fill:#1c71d8;fill-opacity:1;stroke:none;stroke-width:5.57913;stroke-opacity:1"
         x="225.7415"
         y="123.22247">44</tspan></text><text
       xml:space="preserve"
       style="font-weight:bold;font-size:89.2662px;line-height:1.25;font-family:Cantarell;-inkscape-font-specification:'Cantarell Bold';text-align:center;word-spacing:0px;text-anchor:middle;fill:#99c1f1;fill-opacity:1;stroke:none;stroke-width:5.57913;stroke-opacity:1"
       x="39.111732"
       y="123.22247"
       id="text465-3"><tspan
         sodipodi:role="line"
         id="tspan463-6"
         style="fill:#99c1f1;fill-opacity:1;stroke:none;stroke-width:5.57913;stroke-opacity:1"
         x="39.111732"
         y="123.22247">4</tspan></text></g></svg>
