<?xml version="1.0" encoding="UTF-8" standalone="no"?>
<!-- Created with Inkscape (http://www.inkscape.org/) -->

<svg
   width="1100"
   height="700"
   viewBox="0 0 291.04166 185.20833"
   version="1.1"
   id="svg5"
   inkscape:version="1.2.2 (b0a8486541, 2022-12-01)"
   sodipodi:docname="hero.svg"
   xml:space="preserve"
   inkscape:export-filename="hero.png"
   inkscape:export-xdpi="96"
   inkscape:export-ydpi="96"
   xmlns:inkscape="http://www.inkscape.org/namespaces/inkscape"
   xmlns:sodipodi="http://sodipodi.sourceforge.net/DTD/sodipodi-0.dtd"
   xmlns="http://www.w3.org/2000/svg"
   xmlns:svg="http://www.w3.org/2000/svg"><sodipodi:namedview
     id="namedview7"
     pagecolor="#ffffff"
     bordercolor="#666666"
     borderopacity="1.0"
     inkscape:showpageshadow="2"
     inkscape:pageopacity="0.0"
     inkscape:pagecheckerboard="0"
     inkscape:deskcolor="#d1d1d1"
     inkscape:document-units="mm"
     showgrid="false"
     inkscape:zoom="0.2973261"
     inkscape:cx="538.12968"
     inkscape:cy="487.68003"
     inkscape:window-width="1128"
     inkscape:window-height="683"
     inkscape:window-x="0"
     inkscape:window-y="0"
     inkscape:window-maximized="1"
     inkscape:current-layer="layer1"
     showguides="true" /><defs
     id="defs2" /><g
     inkscape:label="Layer 1"
     inkscape:groupmode="layer"
     id="layer1"><g
       id="Group"
       transform="matrix(0.7747447,0,0,0.7747447,91.377453,23.884312)"><path
         style="fill:#fbbc05"
         d="m 114.7,150.8 25.7,25.7 25.7,-25.7 h 36.4 V 114.4 L 228.2,88.7 202.5,63 V 26.6 H 166.1 L 140.4,0.9 114.7,26.6 H 78.3 V 63 l -25.7,25.7 25.7,25.7 v 36.4 z"
         id="Shape" /><path
         style="fill:#ffffff"
         id="path11"
         d="m 143.2,61.2 -0.1,0.4 -11.9,52.5 -0.4,2 h 7.4 l 0.1,-0.4 11.9,-52.5 0.4,-2 z m -18.9,7.2 -1,0.7 -21.5,16.7 -1.4,1.1 v 3.4 l 1.4,1.1 21.5,16.7 1,0.7 v -9 L 109.8,88.7 124.3,77.4 Z m 32.2,0 v 9 L 171,88.7 156.5,100 v 9 l 1,-0.7 21.5,-16.7 1.4,-1.1 V 87.1 L 179,86 157.4,69.2 Z" /><circle
         id="Oval"
         cx="140.39999"
         cy="88.699997"
         r="58.700001"
         style="fill:none;stroke:#ffffff;stroke-width:8" /></g><g
       transform="matrix(0.9791083,0,0,0.9791083,28.16173,34.709493)"
       style="fill:#1a5fb4;fill-opacity:1;fill-rule:nonzero;stroke:none;stroke-miterlimit:4"
       id="g3771"><g
         style="fill:#1a5fb4;fill-opacity:1"
         id="g3773"><path
           d="M 86.068,0 C 61.466,0 56.851,35.041 70.691,35.041 84.529,35.041 110.671,0 86.068,0 Z"
           style="fill:#1a5fb4;fill-opacity:1"
           id="path3775" /><path
           d="M 45.217,30.699 C 52.586,31.149 60.671,2.577 46.821,4.374 32.976,6.171 37.845,30.249 45.217,30.699 Z"
           style="fill:#1a5fb4;fill-opacity:1"
           id="path3777" /><path
           d="M 11.445,48.453 C 16.686,46.146 12.12,23.581 3.208,29.735 -5.7,35.89 6.204,50.759 11.445,48.453 Z"
           style="fill:#1a5fb4;fill-opacity:1"
           id="path3779" /><path
           d="M 26.212,36.642 C 32.451,35.37 32.793,9.778 21.667,14.369 10.539,18.961 19.978,37.916 26.212,36.642 Z"
           style="fill:#1a5fb4;fill-opacity:1"
           id="path3781" /><path
           d="m 58.791,93.913 c 1.107,8.454 -6.202,12.629 -13.36,7.179 C 22.644,83.743 83.16,75.088 79.171,51.386 75.86,31.712 15.495,37.769 8.621,68.553 3.968,89.374 27.774,118.26 52.614,118.26 c 12.22,0 26.315,-11.034 28.952,-25.012 C 83.58,82.589 57.867,86.86 58.791,93.913 Z"
           style="fill:#1a5fb4;fill-opacity:1"
           id="path3783" /></g></g></g></svg>
