<?xml version="1.0" encoding="UTF-8" standalone="no"?>
<!-- Created with Inkscape (http://www.inkscape.org/) -->

<svg
   width="1100"
   height="700"
   viewBox="0 0 291.04166 185.20833"
   version="1.1"
   id="svg5"
   xml:space="preserve"
   inkscape:version="1.2.2 (b0a8486541, 2022-12-01)"
   sodipodi:docname="hero.svg"
   inkscape:export-filename="thumbnail.png"
   inkscape:export-xdpi="96"
   inkscape:export-ydpi="96"
   xmlns:inkscape="http://www.inkscape.org/namespaces/inkscape"
   xmlns:sodipodi="http://sodipodi.sourceforge.net/DTD/sodipodi-0.dtd"
   xmlns="http://www.w3.org/2000/svg"
   xmlns:svg="http://www.w3.org/2000/svg"><sodipodi:namedview
     id="namedview7"
     pagecolor="#ffffff"
     bordercolor="#666666"
     borderopacity="1.0"
     inkscape:showpageshadow="2"
     inkscape:pageopacity="0.0"
     inkscape:pagecheckerboard="0"
     inkscape:deskcolor="#d1d1d1"
     inkscape:document-units="mm"
     showgrid="false"
     inkscape:zoom="0.2973261"
     inkscape:cx="433.86706"
     inkscape:cy="514.58651"
     inkscape:window-width="1128"
     inkscape:window-height="683"
     inkscape:window-x="0"
     inkscape:window-y="0"
     inkscape:window-maximized="1"
     inkscape:current-layer="layer1" /><defs
     id="defs2" /><g
     inkscape:label="Layer 1"
     inkscape:groupmode="layer"
     id="layer1"><g
       id="g316"
       transform="translate(-2.2872611)"><g
         id="g301"
         transform="matrix(14.77792,0,0,14.77792,157.98151,33.492486)"><rect
           class="button"
           width="8"
           height="8"
           rx="1.5"
           id="rect283"
           x="0"
           y="0" /><circle
           class="symbol"
           cx="2"
           cy="6"
           r="1"
           id="circle285" /><path
           class="symbol"
           d="M 1,4 A 3,3 0 0 1 4,7 H 5 A 4,4 0 0 0 1,3 Z"
           id="path287" /><path
           class="symbol"
           d="M 1,2 A 5,5 0 0 1 6,7 H 7 A 6,6 0 0 0 1,1 Z"
           id="path289" /></g><g
         id="g520"
         transform="matrix(1.3107672,0,0,1.3107672,19.411319,-51.763793)"><path
           fill="#ff4088"
           d="M 87.656457,124.62577 V 92.279404 c 0,-4.206345 -2.227791,-8.097837 -5.854171,-10.228791 C 74.019039,77.477819 60.268643,69.398767 51.847485,64.45053 47.399839,61.838563 41.875339,61.897301 37.485902,64.603988 30.032589,69.1998 18.404152,76.370009 10.897923,80.999423 6.370902,83.790777 3.6139437,88.727902 3.6139437,94.046027 v 33.118423 c 0,5.27526 2.7992916,10.15365 7.3527703,12.81562 l 27.707167,16.19568 c 3.683,2.15371 8.231187,2.20054 11.959166,0.12435 8.090958,-4.50744 22.420792,-12.48727 30.675792,-17.08546 3.915833,-2.18282 6.342062,-6.31296 6.342062,-10.795 v -3.79413 z"
           id="path303"
           style="clip-rule:evenodd;fill-rule:evenodd;stroke-width:0.264583;stroke-linejoin:round;stroke-miterlimit:1.414" /><path
           fill="#c9177e"
           d="m 44.830999,58.960426 h 0.07329 l 0.06535,7.93e-4 h 0.374121 l 0.06535,0.0026 h 0.0079 l 0.06535,0.0026 h 0.0071 l 0.06615,0.0026 h 0.0053 l 0.06615,0.0026 h 0.0079 l 0.0635,0.0026 h 0.0079 l 0.0635,0.0026 h 0.0053 l 0.06615,0.0026 h 0.0079 l 0.06614,0.0053 h 0.0079 l 0.0635,0.0053 h 0.0053 l 0.0635,0.0053 h 0.0079 l 0.06615,0.0053 h 0.0053 l 0.0635,0.0053 h 0.0079 l 0.06615,0.0053 h 0.0079 l 0.06615,0.0053 h 0.0079 l 0.06615,0.0053 h 0.0079 l 0.0635,0.0053 h 0.0079 l 0.0635,0.0053 h 0.0079 l 0.06615,0.0053 h 0.0079 l 0.06615,0.0079 h 0.0079 l 0.06615,0.0079 h 0.0053 l 0.0635,0.0079 h 0.0079 l 0.0635,0.0079 h 0.0079 l 0.06615,0.0079 h 0.0079 l 0.06614,0.0079 h 0.0053 l 0.0635,0.0079 h 0.0079 l 0.06614,0.0079 h 0.0079 l 0.0635,0.01058 0.0079,0.0026 0.06615,0.01058 h 0.0079 l 0.0635,0.01058 h 0.0053 l 0.06615,0.01058 h 0.0079 l 0.0635,0.01058 h 0.0079 l 0.0635,0.01058 h 0.0053 l 0.06615,0.01058 h 0.0079 l 0.0635,0.01058 0.0079,0.0026 0.0635,0.01058 0.0079,0.0026 0.0635,0.01323 h 0.0079 l 0.0635,0.01058 h 0.0079 l 0.0635,0.01323 h 0.0079 l 0.06615,0.01323 h 0.0053 l 0.0635,0.01323 h 0.0079 l 0.0635,0.01323 h 0.0053 l 0.06615,0.01323 0.0079,0.0026 0.06615,0.01323 h 0.0053 l 0.0635,0.01588 0.0079,0.0026 0.0635,0.01588 h 0.0079 l 0.06615,0.01588 0.0053,0.0026 0.0635,0.01323 0.0079,0.0026 0.0635,0.01323 0.0053,0.0026 0.0635,0.01588 h 0.0079 l 0.0635,0.01588 0.0079,0.0026 0.0635,0.01588 0.0053,0.0026 0.06615,0.01588 0.0053,0.0026 0.0635,0.01588 0.0079,0.0026 0.0635,0.01588 h 0.0053 l 0.0635,0.01852 h 0.0079 l 0.06615,0.01588 0.0079,0.0026 0.0635,0.01588 h 0.0079 l 0.0635,0.01852 0.0079,0.0026 0.0635,0.01852 0.0079,0.0026 0.0635,0.01852 0.0079,0.0026 0.0635,0.01852 0.0053,0.0026 0.0635,0.01852 0.0079,0.0026 0.0635,0.01852 0.0079,0.0026 0.0635,0.01852 0.0079,0.0026 0.0635,0.02117 0.0053,0.0026 0.0635,0.02117 h 0.0079 l 0.0635,0.02117 h 0.0079 l 0.0635,0.02117 0.0079,0.0026 0.0635,0.02117 0.0079,0.0026 0.0635,0.02117 0.0053,0.0026 0.0635,0.02117 0.0079,0.0026 0.0635,0.02117 0.0053,0.0026 0.0635,0.02117 0.0053,0.0026 0.06085,0.02117 0.0079,0.0026 0.06085,0.02117 0.0079,0.0026 0.06085,0.02381 0.0079,0.0026 0.0635,0.02381 0.0079,0.0026 0.06085,0.02381 0.0053,0.0026 0.0635,0.02117 0.0053,0.0026 0.0635,0.02381 0.0079,0.0026 0.0635,0.02381 0.0079,0.0026 0.06085,0.02381 0.0079,0.0026 0.06085,0.02646 0.0053,0.0026 0.0635,0.02381 0.0079,0.0026 0.06085,0.02646 0.0079,0.0026 0.0635,0.02646 0.0079,0.0026 0.0635,0.02646 0.0053,0.0026 0.0635,0.02646 0.0053,0.0026 0.06085,0.02646 0.0053,0.0026 0.06085,0.02646 0.0053,0.0026 0.0635,0.02646 0.0053,0.0026 0.06085,0.02646 0.0079,0.0026 0.06085,0.02646 0.0079,0.0026 0.06085,0.02646 0.0053,0.0026 0.06085,0.0291 0.0079,0.0026 0.06085,0.0291 0.0079,0.0026 0.06085,0.0291 0.0053,0.0026 0.06085,0.0291 0.0053,0.0026 0.06085,0.0291 0.0079,0.0026 0.06085,0.0291 0.0079,0.0026 0.06085,0.0291 0.0079,0.0026 0.06086,0.0291 0.0053,0.0026 0.06085,0.03175 0.0053,0.0053 0.06085,0.0291 0.0053,0.0026 0.05821,0.03175 0.0079,0.0026 0.06085,0.0291 0.0053,0.0026 0.06085,0.03175 0.0079,0.0026 0.05821,0.03175 0.0079,0.0053 0.06085,0.03175 0.0079,0.0026 0.06085,0.03175 0.0053,0.0026 0.05821,0.03175 0.0079,0.0053 0.06086,0.03175 0.0053,0.0053 0.05821,0.0344 0.0053,0.0053 0.05821,0.0344 0.0079,0.0026 0.05821,0.0344 0.0053,0.0026 0.05821,0.0344 0.0053,0.0053 0.05821,0.03439 0.0079,0.0053 0.05556,0.0344 h 0.0053 l 29.977291,17.613312 0.05027,0.0291 0.0053,0.0053 0.05027,0.0291 0.0079,0.0026 0.04762,0.03175 0.0053,0.0053 0.04763,0.0291 0.0053,0.0053 0.04762,0.02911 0.0053,0.0026 0.04762,0.02911 0.0053,0.0026 0.04762,0.0291 0.0053,0.0026 0.04762,0.02911 0.0079,0.0026 0.04763,0.03175 0.0053,0.0026 0.04762,0.03175 0.0079,0.0026 0.04762,0.0291 0.0053,0.0026 0.04762,0.03175 0.0053,0.0053 0.04762,0.03175 0.0053,0.0053 0.04498,0.02911 0.0079,0.0026 0.04762,0.03175 0.0053,0.0026 0.04762,0.03175 0.0053,0.0026 0.04498,0.03175 0.0053,0.0026 0.04498,0.03175 0.0053,0.0026 0.04498,0.03175 0.0053,0.0053 0.04498,0.03175 0.0053,0.0026 0.04498,0.0344 0.0079,0.0053 0.04498,0.03175 0.0053,0.0026 0.04498,0.03175 0.0053,0.0026 0.04498,0.03175 0.0053,0.0053 0.04498,0.03175 0.0053,0.0026 0.04498,0.03175 0.0053,0.0053 0.04498,0.03175 0.0053,0.0053 0.04498,0.0344 0.0079,0.0053 0.04233,0.0344 0.0079,0.0053 0.04498,0.0344 0.0079,0.0026 0.04498,0.0344 0.0053,0.0053 0.04498,0.0344 0.0053,0.0053 0.04233,0.0344 0.0079,0.0053 0.04498,0.03704 0.0079,0.0079 0.08467,0.06879 0.01058,0.0079 0.08467,0.07144 0.01058,0.0079 0.08731,0.07144 0.01058,0.0079 0.08731,0.07144 0.01058,0.0079 0.08467,0.07144 0.01058,0.01058 0.08467,0.07144 0.01058,0.0079 0.08202,0.07408 0.01058,0.0079 0.08202,0.07408 0.01058,0.0079 0.08202,0.07673 0.01058,0.0079 0.07937,0.07408 0.01058,0.0079 0.08202,0.07673 0.01058,0.01058 0.07937,0.07673 0.01058,0.01058 0.07937,0.07673 0.01058,0.01058 0.07673,0.07673 0.01058,0.01058 0.07673,0.07937 0.01058,0.01058 0.07673,0.07937 0.0079,0.01058 0.07673,0.07937 0.01058,0.01058 0.07408,0.07937 0.01058,0.01058 0.07408,0.07937 0.01058,0.01058 0.07408,0.07937 0.01058,0.01058 0.07408,0.08202 0.01058,0.01058 0.07144,0.08467 0.0079,0.01058 0.07408,0.08202 0.01058,0.01058 0.07144,0.08467 0.01058,0.01058 0.07144,0.08467 0.0079,0.01058 0.07144,0.08467 0.01058,0.01058 0.06879,0.08467 0.0079,0.01058 0.06879,0.08467 0.01058,0.01058 0.06879,0.08731 0.0079,0.01058 0.06615,0.08731 0.0079,0.01058 0.06615,0.08731 0.0079,0.01058 0.06615,0.08731 0.0079,0.01323 0.06615,0.08996 0.0079,0.01058 0.06615,0.08731 0.0079,0.01323 0.0635,0.08996 0.0079,0.01058 0.0635,0.08996 0.0079,0.01058 0.0635,0.08996 0.0079,0.01323 0.06086,0.08996 0.0079,0.01323 0.06085,0.0926 0.0079,0.01323 0.05821,0.08996 0.0079,0.01058 0.05821,0.08996 0.0079,0.01058 0.06086,0.0926 0.0079,0.01058 0.05821,0.0926 0.0079,0.01323 0.05556,0.09261 0.0079,0.01323 0.05821,0.0926 0.0079,0.01323 0.05556,0.0926 0.0079,0.01323 0.05556,0.09525 0.0079,0.01058 0.05292,0.09525 0.0079,0.01323 0.05292,0.09525 0.0079,0.01323 0.05292,0.09525 0.0079,0.01323 0.05292,0.09525 0.0053,0.01323 0.05292,0.0979 0.0053,0.01323 0.05027,0.0979 0.0053,0.01323 0.05027,0.0979 0.0079,0.01058 0.04762,0.100541 0.0053,0.01323 0.05027,0.0979 0.0053,0.01323 0.04762,0.0979 0.0079,0.01323 0.04498,0.100542 0.0053,0.01323 0.04498,0.100542 0.0053,0.01323 0.04498,0.100542 0.0053,0.01323 0.04498,0.100542 0.0053,0.01323 0.04233,0.100541 0.0053,0.01323 0.04233,0.100541 0.0053,0.01323 0.03969,0.103188 0.0053,0.01323 0.03969,0.100542 0.0053,0.01323 0.03969,0.103187 0.0053,0.01323 0.03969,0.103187 0.0053,0.01323 0.03969,0.103188 0.0053,0.01323 0.03704,0.103187 0.0053,0.01323 0.0344,0.103187 0.0053,0.01323 0.0344,0.103188 0.0053,0.01323 0.0344,0.103187 0.0053,0.01323 0.0344,0.105833 0.0026,0.01323 0.03175,0.103188 0.0053,0.01323 0.03175,0.105833 0.0026,0.01323 0.03175,0.105834 0.0053,0.01323 0.03175,0.105833 0.0053,0.01323 0.0291,0.105834 0.0053,0.01323 0.0291,0.105833 0.0026,0.01323 0.02646,0.105834 0.0053,0.01587 0.0291,0.108479 0.0026,0.01323 0.02646,0.108479 0.0053,0.01323 0.02381,0.108479 0.0053,0.01323 0.02646,0.10848 0.0026,0.01587 0.02381,0.108479 0.0026,0.01323 0.02381,0.108479 0.0026,0.01323 0.02117,0.108479 0.0026,0.01323 0.02117,0.108479 0.0026,0.01323 0.02117,0.108479 0.0026,0.01323 0.01852,0.111125 0.0026,0.01323 0.01852,0.10848 0.0026,0.01588 0.01852,0.111125 0.0026,0.01587 0.01588,0.111125 0.0026,0.01587 0.01587,0.108479 v 0.01058 l 0.0079,0.05821 v 0.0053 l 0.0053,0.05556 v 0.0079 l 0.0079,0.05556 v 0.0053 l 0.0079,0.05556 v 0.0079 l 0.0079,0.05556 0.0026,0.0079 0.0079,0.05556 v 0.0079 l 0.0053,0.05556 0.0026,0.0053 0.0053,0.05556 0.0026,0.0079 0.0053,0.05556 v 0.0079 l 0.0053,0.05556 0.0026,0.0079 0.0053,0.05556 0.0026,0.0079 0.0053,0.05556 v 0.0079 l 0.0053,0.05556 v 0.0079 l 0.0053,0.05556 v 0.0079 l 0.0053,0.05556 v 0.0079 l 0.0053,0.05556 v 0.0079 l 0.0026,0.05556 v 0.0079 l 0.0026,0.05821 v 0.0079 l 0.0053,0.05821 v 0.0053 l 0.0026,0.05556 v 0.0079 l 0.0026,0.05556 v 0.0079 l 0.0026,0.05556 v 0.0079 l 0.0026,0.05556 v 0.0079 l 0.0026,0.05821 v 0.0079 l 0.0026,0.05556 v 0.0079 l 0.0026,0.05556 v 0.0053 l 0.0026,0.05556 v 36.935829 l -0.0026,0.0609 v 0.0767 l -0.0026,0.0608 v 0.008 l -0.0026,0.0582 v 0.005 l -0.0026,0.0609 v 0.008 l -0.0026,0.0582 v 0.005 l -0.0026,0.0582 v 0.008 l -0.0026,0.0582 -0.0026,0.008 -0.0026,0.0582 v 0.008 l -0.0026,0.0582 v 0.005 l -0.0026,0.0609 v 0.008 l -0.0053,0.0609 v 0.005 l -0.0053,0.0609 v 0.008 l -0.0053,0.0582 v 0.008 l -0.0026,0.0582 v 0.008 l -0.0053,0.0582 v 0.008 l -0.0053,0.0582 v 0.008 l -0.0053,0.0582 v 0.008 l -0.0053,0.0582 -0.0026,0.005 -0.0053,0.0609 -0.0026,0.008 -0.0053,0.0582 v 0.008 l -0.0053,0.0582 -0.0026,0.008 -0.0079,0.0582 v 0.008 l -0.0079,0.0582 v 0.005 l -0.0079,0.0582 v 0.008 l -0.0079,0.0582 -0.0026,0.008 -0.0079,0.0609 -0.0026,0.008 -0.0079,0.0582 -0.0026,0.008 -0.0079,0.0582 v 0.008 l -0.0079,0.0582 v 0.008 l -0.0079,0.0582 -0.0026,0.008 -0.0079,0.0582 -0.0026,0.008 -0.01058,0.0582 v 0.005 l -0.0079,0.0582 v 0.005 l -0.01058,0.0582 -0.0026,0.008 -0.0079,0.0582 -0.0026,0.008 -0.0079,0.0582 v 0.005 l -0.01058,0.0582 v 0.005 l -0.01058,0.0582 v 0.005 l -0.01058,0.0582 v 0.008 l -0.01058,0.0556 -0.0026,0.008 -0.01058,0.0556 -0.0026,0.008 -0.01058,0.0582 -0.0026,0.008 -0.01323,0.0582 v 0.005 l -0.01323,0.0582 v 0.005 l -0.01058,0.0556 v 0.008 l -0.01323,0.0582 v 0.005 l -0.01058,0.0582 -0.0026,0.005 -0.01323,0.0556 v 0.005 l -0.01323,0.0556 v 0.008 l -0.01323,0.0556 -0.0026,0.008 -0.01323,0.0556 -0.0026,0.008 -0.01323,0.0556 -0.0026,0.005 -0.01323,0.0556 -0.0026,0.005 -0.01323,0.0556 -0.0026,0.008 -0.01587,0.0556 -0.0026,0.008 -0.01323,0.0556 -0.0026,0.008 -0.01588,0.0556 v 0.008 l -0.01587,0.0582 -0.0026,0.008 -0.01588,0.0556 v 0.008 l -0.01587,0.0556 -0.0026,0.008 -0.01588,0.0556 -0.0026,0.008 -0.01587,0.0582 -0.0026,0.005 -0.01588,0.0556 -0.0026,0.005 -0.01587,0.0556 -0.0026,0.008 -0.01852,0.0556 -0.0026,0.008 -0.01587,0.0556 -0.0026,0.005 -0.01588,0.0556 -0.0026,0.008 -0.01587,0.0556 -0.0026,0.005 -0.01852,0.0556 -0.0026,0.008 -0.01852,0.0556 -0.0026,0.008 -0.01852,0.0556 -0.0026,0.008 -0.01852,0.0556 -0.0026,0.008 -0.01852,0.0556 -0.0026,0.005 -0.01852,0.0556 -0.0026,0.008 -0.01852,0.0556 -0.0026,0.008 -0.01852,0.0556 -0.0026,0.005 -0.01852,0.0556 -0.0026,0.008 -0.01852,0.0556 -0.0026,0.008 -0.02117,0.0529 -0.0026,0.008 -0.01852,0.0529 -0.0026,0.008 -0.01852,0.0529 -0.0026,0.008 -0.01852,0.0556 -0.0026,0.008 -0.02117,0.0556 -0.0026,0.008 -0.02117,0.0529 -0.0026,0.008 -0.02117,0.0529 -0.0026,0.008 -0.02117,0.0529 -0.0026,0.008 -0.02117,0.0529 -0.0026,0.008 -0.02117,0.0529 -0.0026,0.008 -0.02117,0.0529 -0.0026,0.005 -0.02381,0.0529 -0.0026,0.008 -0.02381,0.0556 -0.0026,0.008 -0.02117,0.0529 -0.0026,0.008 -0.02381,0.0529 -0.0026,0.008 -0.02381,0.0529 -0.0026,0.008 -0.02381,0.0529 -0.0026,0.005 -0.02381,0.0529 -0.0026,0.008 -0.02381,0.0529 -0.0026,0.005 -0.02381,0.0529 -0.0026,0.005 -0.02381,0.0529 -0.0026,0.005 -0.02381,0.0529 -0.0026,0.005 -0.02646,0.0529 -0.0026,0.005 -0.02646,0.0503 -0.0026,0.008 -0.02381,0.0529 -0.0026,0.005 -0.02646,0.0503 -0.0026,0.008 -0.02381,0.0529 -0.0026,0.005 -0.02646,0.0529 -0.0026,0.008 -0.02646,0.0529 -0.0026,0.005 -0.02646,0.0503 -0.0026,0.005 -0.02646,0.0529 -0.0026,0.008 -0.02646,0.0529 -0.0026,0.008 -0.02646,0.0529 -0.0053,0.008 -0.02646,0.0503 -0.0026,0.005 -0.02646,0.0529 -0.0026,0.008 -0.02646,0.0529 -0.0026,0.008 -0.0291,0.0503 -0.0053,0.005 -0.0291,0.0503 -0.0026,0.005 -0.0291,0.0503 -0.0026,0.005 -0.0291,0.0503 -0.0026,0.005 -0.0291,0.0503 -0.0026,0.005 -0.0291,0.0503 -0.0026,0.008 -0.0291,0.0503 -0.0026,0.005 -0.0291,0.0503 -0.0026,0.008 -0.0291,0.0503 -0.0053,0.005 -0.0291,0.0503 -0.0053,0.005 -0.02911,0.0503 -0.0026,0.005 -0.02911,0.0503 -0.0026,0.008 -0.03175,0.0503 -0.0026,0.005 -0.0291,0.0476 -0.0026,0.008 -0.0291,0.0476 -0.0053,0.005 -0.03175,0.0503 -0.0026,0.008 -0.03175,0.0476 -0.0053,0.005 -0.03175,0.0476 -0.0026,0.005 -0.03175,0.0503 -0.0053,0.008 -0.03175,0.0476 -0.0053,0.005 -0.03175,0.0476 -0.0026,0.005 -0.03175,0.0503 -0.0026,0.005 -0.03175,0.0476 -0.0053,0.005 -0.0344,0.0476 -0.0026,0.005 -0.03175,0.0476 -0.0026,0.005 -0.0344,0.0476 -0.0026,0.005 -0.03175,0.0476 -0.0053,0.005 -0.03175,0.0476 -0.0053,0.005 -0.03439,0.0476 -0.0053,0.005 -0.03175,0.0476 -0.0026,0.005 -0.0344,0.0476 -0.0053,0.008 -0.03175,0.0476 -0.0053,0.005 -0.0344,0.0476 -0.0053,0.005 -0.03439,0.0476 -0.0053,0.005 -0.0344,0.0476 -0.0053,0.005 -0.0344,0.0476 -0.0026,0.005 -0.0344,0.045 -0.0053,0.005 -0.0344,0.045 -0.0026,0.005 -0.03704,0.045 -0.0053,0.005 -0.0344,0.045 -0.0026,0.005 -0.0344,0.0476 -0.0053,0.005 -0.03704,0.0476 -0.0053,0.005 -0.03704,0.045 -0.0053,0.005 -0.03704,0.045 -0.0026,0.005 -0.03704,0.045 -0.0053,0.005 -0.03704,0.045 -0.0053,0.005 -0.03704,0.045 -0.0053,0.005 -0.03704,0.045 -0.0053,0.005 -0.03704,0.045 -0.0026,0.005 -0.03704,0.045 -0.0053,0.005 -0.03969,0.045 -0.0053,0.005 -0.03704,0.045 -0.0053,0.005 -0.03704,0.045 -0.0053,0.005 -0.03704,0.045 -0.0053,0.005 -0.03704,0.045 -0.0053,0.005 -0.03704,0.0423 -0.0053,0.005 -0.03969,0.045 -0.0053,0.005 -0.03704,0.045 -0.0053,0.005 -0.03969,0.045 -0.0053,0.005 -0.03704,0.045 -0.0053,0.005 -0.03969,0.0423 -0.0053,0.005 -0.03969,0.0423 -0.0053,0.005 -0.03969,0.0423 -0.0053,0.005 -0.03969,0.0423 -0.0053,0.005 -0.03969,0.0423 -0.0053,0.005 -0.03969,0.0423 -0.0053,0.005 -0.03969,0.0423 -0.0053,0.005 -0.03969,0.0423 -0.0053,0.005 -0.04233,0.0423 -0.0053,0.005 -0.03969,0.0423 -0.0053,0.005 -0.03969,0.0397 -0.0053,0.005 -0.04233,0.0423 -0.0079,0.005 -0.04233,0.0423 -0.0053,0.005 -0.04233,0.0397 -0.0053,0.005 -0.04233,0.0423 -0.0053,0.005 -0.04233,0.0397 -0.0053,0.005 -0.04233,0.0397 -0.0053,0.005 -0.04233,0.0397 -0.0053,0.005 -0.04233,0.0397 -0.0053,0.005 -0.04233,0.0397 -0.0053,0.005 -0.04233,0.0397 -0.0053,0.005 -0.04498,0.0397 -0.0053,0.003 -0.04233,0.0397 -0.0053,0.005 -0.04498,0.0397 -0.0053,0.005 -0.04498,0.0397 -0.0053,0.003 -0.04498,0.0397 -0.0053,0.005 -0.04498,0.037 -0.0079,0.005 -0.04498,0.037 -0.0053,0.005 -0.04498,0.0397 -0.0053,0.005 -0.04498,0.0397 -0.0053,0.005 -0.04498,0.0397 -0.0053,0.005 -0.04498,0.037 -0.0053,0.005 -0.04762,0.037 -0.0053,0.003 -0.04498,0.037 -0.0053,0.005 -0.04498,0.037 -0.0079,0.005 -0.04498,0.037 -0.0053,0.005 -0.04498,0.037 -0.0053,0.005 -0.04498,0.037 -0.0053,0.005 -0.04762,0.037 -0.0053,0.005 -0.04498,0.0344 -0.0053,0.005 -0.04762,0.037 -0.0053,0.005 -0.04763,0.037 -0.0053,0.005 -0.04762,0.037 -0.0053,0.005 -0.04762,0.037 -0.0053,0.003 -0.04763,0.0344 -0.0053,0.003 -0.04762,0.0344 -0.0053,0.003 -0.04762,0.0344 -0.0079,0.003 -0.04762,0.0344 -0.0053,0.005 -0.04762,0.0344 -0.0053,0.005 -0.04763,0.0344 -0.0053,0.005 -0.04762,0.0344 -0.0079,0.005 -0.04762,0.0344 -0.0053,0.003 -0.05027,0.0344 -0.0079,0.003 -0.05027,0.0344 -0.0053,0.005 -0.05027,0.0344 -0.0053,0.005 -0.05027,0.0318 -0.0053,0.005 -0.05027,0.0344 -0.0053,0.005 -0.04762,0.0344 -0.0079,0.005 -0.05027,0.0318 -0.0053,0.003 -0.05027,0.0318 -0.0079,0.003 -0.05027,0.0317 -0.0053,0.005 -0.05027,0.0318 -0.0053,0.005 -0.05027,0.0317 -0.0053,0.003 -0.05027,0.0317 -0.0079,0.003 -0.05027,0.0318 -0.0053,0.005 -0.05027,0.0317 -0.0079,0.003 -0.05027,0.0317 -0.0079,0.005 -0.05027,0.0317 -0.0079,0.005 -0.05292,0.0318 -0.0053,0.005 -0.05027,0.0291 -0.0079,0.003 -0.05027,0.0291 -0.0053,0.005 -0.05292,0.0317 -0.0079,0.005 -0.05292,0.0291 -0.0053,0.005 -0.05027,0.0291 -0.0079,0.003 -0.05292,0.0291 -0.0079,0.003 -0.05292,0.0291 -0.0053,0.003 -0.05027,0.0291 -0.0026,0.003 -30.673145,17.09208 h -0.0026 l -0.04763,0.0291 -0.0079,0.003 -0.05027,0.0291 -0.0079,0.005 -0.05027,0.0265 -0.0079,0.003 -0.05027,0.0265 -0.0053,0.003 -0.05027,0.0265 -0.0079,0.003 -0.05027,0.0265 -0.0079,0.003 -0.05027,0.0265 -0.0079,0.003 -0.05027,0.0265 -0.0053,0.003 -0.05027,0.0265 -0.0053,0.003 -0.05027,0.0238 -0.0053,0.003 -0.05292,0.0265 -0.0053,0.005 -0.05027,0.0265 -0.0053,0.003 -0.05027,0.0238 -0.0053,0.003 -0.05027,0.0238 -0.0053,0.003 -0.05027,0.0265 -0.0053,0.003 -0.05292,0.0238 -0.0053,0.003 -0.05027,0.0238 -0.0053,0.003 -0.05292,0.0238 -0.0053,0.003 -0.05027,0.0238 -0.0053,0.003 -0.05027,0.0238 -0.0079,0.005 -0.05292,0.0238 -0.0053,0.003 -0.05292,0.0212 -0.0053,0.003 -0.05292,0.0238 -0.0053,0.005 -0.05292,0.0238 -0.0079,0.003 -0.05027,0.0212 -0.0053,0.003 -0.05292,0.0238 -0.0053,0.003 -0.05292,0.0212 -0.0053,0.003 -0.05292,0.0212 -0.0053,0.003 -0.05292,0.0212 -0.0079,0.003 -0.05292,0.0212 -0.0079,0.003 -0.05292,0.0212 -0.0079,0.003 -0.05027,0.0212 -0.0053,0.003 -0.05292,0.0185 -0.0053,0.003 -0.05292,0.0212 -0.0079,0.003 -0.05292,0.0212 -0.0079,0.003 -0.05292,0.0212 -0.0079,0.003 -0.05292,0.0185 -0.0079,0.003 -0.05292,0.0212 -0.0079,0.003 -0.05292,0.0185 -0.0053,0.003 -0.05292,0.0185 -0.0079,0.003 -0.05292,0.0185 -0.0079,0.003 -0.05292,0.0185 -0.0079,0.003 -0.05292,0.0185 -0.0053,0.003 -0.05292,0.0185 -0.05292,0.0185 -0.0079,0.003 -0.05556,0.0159 -0.0079,0.003 -0.05292,0.0159 -0.0053,0.003 -0.05292,0.0185 -0.0053,0.003 -0.05556,0.0159 -0.0079,0.003 -0.05292,0.0159 -0.0079,0.003 -0.05292,0.0159 -0.0079,0.003 -0.05556,0.0185 -0.01058,0.003 -0.105833,0.0317 -0.01323,0.005 -0.108479,0.0317 -0.01323,0.003 -0.108479,0.0317 -0.01323,0.003 -0.108479,0.0291 -0.01323,0.005 -0.108479,0.0291 -0.01323,0.003 -0.108479,0.0291 -0.01588,0.003 -0.108479,0.0265 -0.01323,0.003 -0.10848,0.0265 -0.01587,0.003 -0.108479,0.0265 -0.01323,0.003 -0.108479,0.0238 -0.01323,0.003 -0.111125,0.0238 -0.01588,0.003 -0.111125,0.0238 -0.01323,0.003 -0.111125,0.0212 -0.01323,0.003 -0.108479,0.0185 -0.01323,0.003 -0.108479,0.0212 -0.01323,0.003 -0.111125,0.0185 -0.01323,0.003 -0.111125,0.0185 -0.01323,0.003 -0.111125,0.0159 -0.01323,0.003 -0.111125,0.0159 -0.01323,0.003 -0.111125,0.0159 -0.01323,0.003 -0.111125,0.0159 -0.01588,0.003 -0.111125,0.0132 -0.01323,0.003 -0.111125,0.0132 -0.01323,0.003 -0.111125,0.0132 -0.111125,0.0106 h -0.01323 l -0.111125,0.008 -0.01323,0.003 -0.111125,0.008 h -0.01323 l -0.111125,0.008 h -0.01323 l -0.111125,0.008 -0.01588,0.003 -0.111125,0.008 h -0.01323 l -0.111125,0.005 h -0.01323 l -0.111125,0.005 h -0.01588 l -0.111125,0.003 h -0.01323 l -0.111125,0.003 h -0.01323 l -0.111125,0.003 h -0.391583 l -0.111125,-0.003 -0.111125,-0.003 h -0.01588 l -0.111125,-0.003 h -0.0024 l -0.111125,-0.005 -0.01323,-0.003 -0.111125,-0.005 h -0.01323 l -0.111125,-0.005 -0.01323,-0.003 -0.111125,-0.005 h -0.01323 l -0.111125,-0.008 -0.01323,-0.003 -0.111125,-0.0106 -0.01588,-0.003 -0.111125,-0.0106 -0.01588,-0.003 -0.111125,-0.0106 -0.01323,-0.003 -0.111125,-0.0106 h -0.01323 l -0.111125,-0.0106 -0.01323,-0.003 -0.111125,-0.0132 h -0.01588 l -0.111125,-0.0132 -0.01588,-0.003 -0.111125,-0.0159 -0.01323,-0.003 -0.111125,-0.0159 -0.01323,-0.003 -0.111125,-0.0159 -0.01323,-0.003 -0.111125,-0.0159 -0.01323,-0.003 -0.108479,-0.0185 h -0.0079 l -0.111125,-0.0212 -0.01429,-0.003 -0.10848,-0.0212 -0.01323,-0.003 -0.108479,-0.0212 -0.01323,-0.003 -0.108479,-0.0212 -0.01587,-0.003 -0.110067,-0.0212 -0.01323,-0.003 -0.108479,-0.0238 -0.01587,-0.005 -0.108479,-0.0238 -0.01323,-0.003 -0.108479,-0.0265 -0.01482,-0.005 -0.10848,-0.0265 -0.01323,-0.005 -0.108479,-0.0291 -0.01323,-0.003 -0.108479,-0.0291 -0.01323,-0.005 -0.10848,-0.0291 -0.01323,-0.005 -0.108479,-0.0291 -0.01323,-0.005 -0.108479,-0.0318 -0.01588,-0.005 -0.108479,-0.0317 -0.01323,-0.005 -0.108479,-0.0317 -0.01323,-0.005 -0.108479,-0.0318 -0.01323,-0.003 -0.105304,-0.0344 -0.01058,-0.003 -0.05556,-0.0185 h -0.0071 l -0.05292,-0.0159 -0.0079,-0.003 -0.05292,-0.0185 -0.0079,-0.003 -0.05292,-0.0185 -0.0079,-0.003 -0.05292,-0.0185 -0.0079,-0.003 -0.05292,-0.0185 -0.0079,-0.003 -0.05292,-0.0185 -0.0053,-0.003 -0.05292,-0.0185 -0.0053,-0.003 -0.05292,-0.0185 -0.0053,-0.003 -0.05292,-0.0212 -0.0079,-0.003 -0.05292,-0.0212 -0.0079,-0.003 -0.05292,-0.0212 -0.0053,-0.003 -0.05292,-0.0212 -0.0079,-0.003 -0.05292,-0.0212 -0.0053,-0.003 -0.05292,-0.0212 -0.0079,-0.003 -0.05292,-0.0212 -0.0053,-0.003 -0.05292,-0.0212 -0.0053,-0.003 -0.05292,-0.0212 -0.0079,-0.003 -0.05292,-0.0212 -0.0079,-0.003 -0.05292,-0.0212 -0.0079,-0.003 -0.05292,-0.0212 -0.0079,-0.003 -0.05292,-0.0212 -0.0053,-0.003 -0.05292,-0.0238 -0.0079,-0.003 -0.05027,-0.0238 -0.0053,-0.003 -0.05292,-0.0238 -0.0053,-0.003 -0.05292,-0.0238 -0.0053,-0.003 -0.05292,-0.0212 -0.0079,-0.003 -0.05027,-0.0238 -0.0079,-0.003 -0.05292,-0.0238 -0.0079,-0.003 -0.05027,-0.0238 -0.0053,-0.005 -0.05027,-0.0238 -0.0053,-0.003 -0.05027,-0.0238 -0.0053,-0.003 -0.05292,-0.0238 -0.0053,-0.005 -0.05292,-0.0264 -0.0053,-0.005 -0.05027,-0.0238 -0.0079,-0.003 -0.05292,-0.0238 -0.0053,-0.005 -0.05027,-0.0265 -0.0079,-0.003 -0.05292,-0.0265 -0.0053,-0.003 -0.05027,-0.0264 -0.0079,-0.003 -0.05027,-0.0265 -0.0053,-0.003 -0.05027,-0.0265 -0.0079,-0.005 -0.05027,-0.0265 -0.0053,-0.003 -0.05027,-0.0265 -0.0053,-0.003 -0.05027,-0.0265 -0.0079,-0.005 -0.05027,-0.0265 -0.0053,-0.003 -0.05027,-0.0291 -0.0079,-0.005 -0.05027,-0.0265 -0.0079,-0.003 -0.05027,-0.0265 -0.0079,-0.003 -0.05027,-0.0265 -0.0079,-0.003 -0.05027,-0.0291 -0.0079,-0.003 -0.04762,-0.0291 -0.0079,-0.003 -0.04762,-0.0291 -0.0026,-0.003 -27.7283332,-16.18456 -0.00265,-0.003 -0.058208,-0.0344 -0.00529,-0.003 -0.058208,-0.0344 -0.00794,-0.003 -0.060854,-0.0344 -0.00794,-0.003 -0.058208,-0.037 -0.00529,-0.003 -0.058208,-0.037 -0.00529,-0.005 -0.058208,-0.037 -0.00529,-0.005 -0.058208,-0.037 -0.00794,-0.003 -0.058208,-0.0344 -0.00794,-0.005 -0.058208,-0.037 -0.00529,-0.005 -0.058208,-0.037 h 0.013494 l -0.058208,-0.037 -0.00794,-0.005 -0.058208,-0.037 -0.00529,-0.005 -0.058208,-0.037 -0.00741,-0.005 -0.058208,-0.0397 -0.00794,-0.005 -0.058208,-0.0397 -0.00529,-0.005 -0.058208,-0.037 -0.00529,-0.005 -0.058208,-0.0397 -0.00529,-0.005 -0.058208,-0.0397 -0.00529,-0.005 -0.055563,-0.0397 -0.00794,-0.005 -0.056885,-0.0397 -0.00529,-0.005 -0.055562,-0.0397 -0.00661,-0.005 -0.055563,-0.0397 -0.00714,-0.005 -0.055562,-0.0397 -0.00529,-0.003 -0.055562,-0.0397 -0.00529,-0.005 -0.054769,-0.0397 -0.00529,-0.005 -0.054504,-0.0397 -0.00794,-0.003 -0.055562,-0.0397 -0.00529,-0.005 -0.055562,-0.0423 -0.00529,-0.005 -0.055562,-0.0397 -0.00688,-0.005 -0.055562,-0.0423 -0.00688,-0.005 -0.052917,-0.0423 -0.00529,-0.005 -0.052917,-0.0423 -0.00529,-0.003 -0.052917,-0.0423 -0.00529,-0.005 -0.052917,-0.0423 -0.00529,-0.005 -0.052917,-0.0423 -0.00529,-0.005 -0.052917,-0.0423 -0.00529,-0.005 -0.052917,-0.0423 -0.00529,-0.005 -0.052917,-0.0423 -0.00529,-0.005 -0.052917,-0.045 -0.00529,-0.003 -0.052917,-0.0423 -0.00529,-0.005 -0.051329,-0.0423 -0.00529,-0.005 -0.052917,-0.045 -0.00529,-0.005 -0.052917,-0.0423 -0.00529,-0.005 -0.052917,-0.045 -0.00529,-0.003 -0.051858,-0.0423 -0.00529,-0.005 -0.050271,-0.0423 -0.00529,-0.005 -0.050271,-0.045 -0.00529,-0.005 -0.050271,-0.045 -0.00529,-0.005 -0.050271,-0.045 -0.00529,-0.005 -0.050271,-0.045 -0.00529,-0.005 -0.050271,-0.045 -0.00529,-0.005 -0.050271,-0.0476 -0.00529,-0.003 -0.050271,-0.045 -0.00794,-0.005 -0.048948,-0.0476 -0.00529,-0.005 -0.050271,-0.045 -0.00529,-0.005 -0.049213,-0.0476 -0.00529,-0.005 -0.047625,-0.0476 -0.00529,-0.005 -0.047625,-0.0476 -0.00529,-0.005 -0.050271,-0.0476 -0.00529,-0.005 -0.050271,-0.0476 -0.00529,-0.003 -0.047625,-0.0476 -0.00529,-0.005 -0.047625,-0.0476 -0.00529,-0.005 -0.047625,-0.0476 -0.00529,-0.005 -0.047625,-0.0476 -0.00529,-0.005 -0.047625,-0.0476 -0.00529,-0.005 -0.047625,-0.0476 -0.00529,-0.005 -0.044979,-0.0476 -0.00529,-0.005 -0.047625,-0.0476 -0.00529,-0.005 -0.047625,-0.0503 -0.00529,-0.005 -0.044979,-0.0503 -0.00529,-0.005 -0.044979,-0.0503 -0.00529,-0.005 -0.047625,-0.0503 -0.00529,-0.005 -0.044979,-0.0503 -0.00529,-0.005 -0.044979,-0.0503 -0.00529,-0.005 -0.044979,-0.0503 -0.00529,-0.005 -0.044979,-0.0503 -0.00529,-0.005 -0.044979,-0.0503 -0.00265,-0.005 -0.042333,-0.0503 -0.00529,-0.005 -0.044979,-0.0503 -0.00529,-0.005 -0.047625,-0.0529 -0.00529,-0.005 -0.044979,-0.0503 -0.00529,-0.005 -0.044979,-0.0529 -0.00529,-0.005 -0.042333,-0.0503 -0.00265,-0.005 -0.042333,-0.0503 -0.00529,-0.005 -0.042333,-0.0529 -0.00529,-0.005 -0.044979,-0.0529 -0.00529,-0.005 -0.042333,-0.0503 -0.00529,-0.005 -0.044979,-0.0503 -0.00529,-0.005 -0.042333,-0.0503 -0.00529,-0.005 -0.042333,-0.0529 -0.00529,-0.005 -0.042333,-0.0529 -0.00529,-0.005 -0.042333,-0.0529 -0.00529,-0.005 -0.042333,-0.0529 -0.00529,-0.005 -0.042333,-0.0529 -0.00265,-0.005 -0.039687,-0.0529 -0.00529,-0.005 -0.039687,-0.0529 -0.00265,-0.005 -0.039688,-0.0529 -0.00529,-0.005 -0.039688,-0.0556 -0.00529,-0.005 -0.039687,-0.0529 -0.00529,-0.005 -0.039688,-0.0529 -0.00265,-0.005 -0.039687,-0.0556 -0.00265,-0.005 -0.039687,-0.0556 -0.00265,-0.005 -0.039687,-0.0529 -0.00265,-0.005 -0.039687,-0.0529 -0.00529,-0.005 -0.039687,-0.0556 -0.00529,-0.005 -0.039688,-0.0556 -0.00529,-0.008 -0.037042,-0.0556 -0.00529,-0.005 -0.037042,-0.0556 -0.00529,-0.005 -0.037042,-0.0556 -0.00529,-0.005 -0.037042,-0.0556 -0.00265,-0.005 -0.037042,-0.0556 -0.00529,-0.008 -0.037042,-0.0556 -0.00529,-0.005 -0.037042,-0.0556 -0.00529,-0.005 -0.037042,-0.0556 -0.00529,-0.005 -0.037042,-0.0556 -0.00529,-0.005 -0.034396,-0.0556 -0.00265,-0.005 -0.034396,-0.0556 -0.00529,-0.008 -0.037042,-0.0556 -0.00529,-0.008 -0.037042,-0.0556 -0.00265,-0.005 -0.037042,-0.0582 -0.00265,-0.008 -0.034396,-0.0556 -0.00529,-0.005 -0.034396,-0.0556 -0.00529,-0.005 -0.034396,-0.0582 -0.00529,-0.008 -0.034396,-0.0556 -0.00265,-0.005 -0.034396,-0.0582 -0.00265,-0.005 -0.034396,-0.0556 -0.00529,-0.008 -0.034396,-0.0582 -0.00529,-0.008 -0.034396,-0.0582 -0.00529,-0.008 -0.03175,-0.0582 -0.00529,-0.005 -0.034396,-0.0582 -0.00265,-0.005 -0.03175,-0.0582 -0.00265,-0.005 -0.03175,-0.0582 -0.00265,-0.008 -0.03175,-0.0582 -0.00529,-0.008 -0.03175,-0.0582 -0.00265,-0.008 -0.03175,-0.0609 -0.00265,-0.005 -0.03175,-0.0582 -0.00265,-0.008 -0.03175,-0.0582 -0.00265,-0.008 -0.03175,-0.0582 -0.00265,-0.008 -0.029104,-0.0609 -0.00265,-0.005 -0.03175,-0.0609 -0.00265,-0.008 -0.03175,-0.0609 -0.00529,-0.005 -0.029104,-0.0609 -0.00265,-0.005 -0.029104,-0.0582 -0.00265,-0.008 -0.029104,-0.0609 v 0.003 l -0.029104,-0.0608 -0.00529,-0.008 -0.029104,-0.0609 -0.00265,-0.008 -0.029104,-0.0582 -0.00265,-0.008 -0.029104,-0.0608 -0.00265,-0.005 -0.029104,-0.0608 -0.00265,-0.005 -0.026458,-0.0609 -0.00265,-0.005 -0.029104,-0.0609 -0.00265,-0.005 -0.029104,-0.0609 -0.00265,-0.005 -0.029104,-0.0608 -0.00265,-0.008 -0.026458,-0.0608 -0.00265,-0.005 -0.029104,-0.0608 -0.00265,-0.008 -0.029104,-0.0608 -0.00265,-0.005 -0.026458,-0.0609 -0.00265,-0.005 -0.026458,-0.0609 -0.00265,-0.008 -0.026458,-0.0609 -0.00265,-0.005 -0.023813,-0.0609 -0.00265,-0.005 -0.026458,-0.0609 -0.00265,-0.008 -0.023813,-0.0635 -0.00265,-0.005 -0.026458,-0.0609 -0.00265,-0.008 -0.023813,-0.0582 -0.00265,-0.008 -0.026458,-0.0635 -0.00265,-0.005 -0.023813,-0.0635 -0.00265,-0.008 -0.023813,-0.0635 -0.00265,-0.005 -0.023813,-0.0635 -0.00265,-0.008 -0.023813,-0.0635 -0.00265,-0.005 -0.023813,-0.0635 -0.00265,-0.005 -0.021167,-0.0635 -0.00265,-0.008 -0.023813,-0.0635 -0.00265,-0.005 -0.021167,-0.0635 -0.00265,-0.008 -0.021167,-0.0635 -0.00265,-0.008 -0.023813,-0.0635 -0.00265,-0.008 -0.0211666,-0.0635 -0.002646,-0.005 -0.0211667,-0.0635 -0.002646,-0.005 -0.0211667,-0.0635 -0.002646,-0.008 -0.0211667,-0.0635 -0.002646,-0.008 -0.0211667,-0.0635 -0.002646,-0.008 -0.0211667,-0.0635 -0.002646,-0.008 -0.0211667,-0.0635 -0.002381,-0.008 -0.0185208,-0.0635 -0.002646,-0.005 -0.0211667,-0.0661 -0.002646,-0.008 -0.0185208,-0.0661 -0.002646,-0.008 -0.0185208,-0.0635 -0.002646,-0.008 -0.0185208,-0.0635 -0.002646,-0.008 -0.0185208,-0.0661 -0.002646,-0.008 -0.0185208,-0.0662 -0.002646,-0.005 -0.0185208,-0.0661 -0.002646,-0.003 -0.0185208,-0.0662 -0.002646,-0.005 -0.015875,-0.0635 -0.002646,-0.005 -0.015875,-0.0635 v -0.005 l -0.0185208,-0.0661 v -0.008 l -0.015875,-0.0635 -0.002646,-0.008 -0.015875,-0.0635 -0.002646,-0.008 -0.015875,-0.0661 h 0.002646 l -0.015875,-0.0662 -0.002646,-0.005 -0.015875,-0.0662 -0.002646,-0.005 -0.015875,-0.0661 -0.002646,-0.005 -0.015875,-0.0661 0.002646,-0.003 -0.015875,-0.0661 -0.002646,-0.008 -0.015875,-0.0661 -0.002646,-0.008 -0.0132292,-0.0661 -0.002646,-0.008 -0.015875,-0.0661 -0.002646,-0.005 -0.0132292,-0.0661 -0.002646,-0.008 -0.0132292,-0.0661 -0.002646,-0.008 -0.0132292,-0.0661 -0.0132292,-0.0661 v -0.008 L 0.3404939,130.602 v -0.008 l -0.0132292,-0.0661 -0.002646,-0.008 -0.015875,-0.0635 v -0.008 l -0.0132292,-0.0714 -0.002646,-0.008 -0.0132292,-0.0688 -0.002646,-0.008 -0.0105833,-0.0661 -0.002646,-0.008 -0.0105833,-0.0661 v -0.008 l -0.0105833,-0.0661 v -0.008 l -0.0105833,-0.0661 -0.002646,-0.008 -0.0105833,-0.0661 v 0.003 l -0.0105833,-0.0661 v -0.005 l -0.0105833,-0.0661 v -0.008 l -0.0105833,-0.0661 v -0.008 l -0.0105833,-0.0661 v -0.005 l -0.007938,-0.0688 v -0.008 l -0.007937,-0.0662 v -0.005 l -0.0105833,-0.0688 -0.002646,-0.008 -0.007938,-0.0661 v -0.008 l -0.007937,-0.0688 -0.002646,-0.008 -0.007938,-0.0688 v -0.008 l -0.007938,-0.0688 -0.002646,-0.008 -0.007938,-0.0688 v -0.008 l -0.0079375,-0.0688 -0.0026458,-0.005 -0.0079375,-0.0688 -0.0052917,-0.0688 v -0.008 L 0.0706163,128.748 0.0679705,128.74 0.060033,128.6712 v -0.008 l -0.0052917,-0.0688 -0.0026458,-0.008 -0.0052917,-0.0688 v -0.008 l -0.0052917,-0.0688 v -0.008 L 0.0362204,128.364 0.0309287,128.2952 v -0.008 L 0.025637,128.2184 v -0.008 l -0.0052917,-0.0688 v -0.0855 l -0.0026458,-0.0688 v -0.008 l -0.0026458,-0.0688 v -0.008 l -0.0026458,-0.0688 -0.00264584,-0.008 -0.00264583,-0.0688 v -0.0741 L 0.0044704,127.614 v -0.008 L -4.6e-8,127.5354 V 94.039148 l 0.002645836,-0.06615 v -0.08467 l 0.00264583,-0.06879 v -0.243417 l 0.00264583,-0.06879 v -0.0053 l 0.00264584,-0.06879 v -0.0079 l 0.0026458,-0.06879 v -0.0079 l 0.0026458,-0.06879 v -0.0053 l 0.0026458,-0.06879 v -0.0079 l 0.0026458,-0.06879 v -0.0079 l 0.0052917,-0.07144 v -0.0079 l 0.0052917,-0.06879 v -0.0053 l 0.0026458,-0.06879 v -0.0079 l 0.0052917,-0.06879 v -0.0079 l 0.0026458,-0.06879 v -0.0079 l 0.0026458,-0.06879 v -0.0079 l 0.0052917,-0.06879 v -0.0079 l 0.0052917,-0.06879 v -0.0079 l 0.0079375,-0.06879 v -0.0079 l 0.0052917,-0.06879 0.0026458,-0.0053 0.0052917,-0.06879 v -0.0053 l 0.0079375,-0.06879 v -0.0053 l 0.0079375,-0.06879 0.0026458,-0.0079 0.0079375,-0.06879 v -0.0079 l 0.007938,-0.06879 v -0.0053 l 0.007938,-0.06879 v -0.0053 l 0.007938,-0.06879 0.002646,-0.0079 0.007937,-0.06879 v -0.0079 l 0.007938,-0.06615 v -0.0079 l 0.007937,-0.06879 v -0.0079 l 0.007938,-0.06879 0.002646,-0.0079 0.007938,-0.06614 v -0.0079 l 0.0105833,-0.06879 v -0.0079 l 0.007938,-0.06879 0.002646,-0.0079 0.007938,-0.06615 0.002646,-0.0079 0.0105833,-0.06879 0.002646,-0.0053 0.0105833,-0.06879 v -0.0053 l 0.0105833,-0.06879 v -0.0053 l 0.0105833,-0.06615 0.002646,-0.0079 0.0105833,-0.06615 v -0.0079 l 0.0185208,-0.06879 0.002646,-0.0079 0.0105833,-0.06615 v -0.0079 l 0.0132292,-0.06615 v -0.0053 l 0.0132292,-0.06615 v -0.0053 l 0.0132292,-0.06879 0.002646,-0.0053 0.0132292,-0.06615 0.002646,-0.0053 0.0132292,-0.06614 0.002646,-0.0079 0.0132292,-0.06615 0.002646,-0.0079 0.0132292,-0.06615 v -0.0079 l 0.0132292,-0.06614 v -0.0053 l 0.0132292,-0.06615 0.002646,-0.0053 0.0132292,-0.06615 0.002646,-0.0053 0.015875,-0.06615 v -0.0079 l 0.015875,-0.06615 0.002646,-0.0079 0.0132292,-0.06615 0.002646,-0.0079 0.015875,-0.06615 v -0.0079 l 0.015875,-0.06615 0.002646,-0.0079 0.015875,-0.06615 v -0.0079 l 0.015875,-0.06615 0.002646,-0.0053 0.015875,-0.06614 v -0.0053 l 0.015875,-0.06615 0.002646,-0.0079 0.0185208,-0.06615 v -0.0053 l 0.0185208,-0.06615 v -0.0053 l 0.0185208,-0.06615 0.002646,-0.0079 0.0185208,-0.06615 v -0.0079 l 0.0185208,-0.06615 0.002646,-0.0079 0.0185208,-0.0635 0.002646,-0.0053 0.0185208,-0.06615 0.002646,-0.0066 0.0185208,-0.06615 0.002646,-0.0079 0.0185208,-0.06456 0.002646,-0.0053 0.0211667,-0.06615 0.002646,-0.0053 0.0185208,-0.0635 0.002646,-0.0053 0.0185208,-0.06429 0.002646,-0.0053 0.0185208,-0.06562 0.002646,-0.0079 0.0211667,-0.06456 0.002646,-0.0079 0.0211667,-0.0635 v -0.0053 l 0.0211667,-0.0635 v -0.0079 l 0.0211667,-0.0635 0.002646,-0.0053 0.0211667,-0.0635 0.002646,-0.0079 0.0211666,-0.0635 0.00265,-0.0079 0.021167,-0.0635 0.00265,-0.0079 0.021167,-0.0635 0.00265,-0.0053 0.023813,-0.0635 0.00265,-0.0053 0.021167,-0.0635 0.00265,-0.0066 0.021167,-0.0635 0.00265,-0.0053 0.023813,-0.0635 0.00265,-0.0053 0.023812,-0.0635 v -0.0053 l 0.023813,-0.0635 0.00265,-0.0053 0.023813,-0.0635 0.00265,-0.0079 0.023813,-0.0635 0.00265,-0.0053 0.023812,-0.0635 0.00265,-0.0079 0.026458,-0.06085 0.00265,-0.0053 0.026458,-0.0635 0.00265,-0.0053 0.026458,-0.0635 0.00265,-0.0079 0.026458,-0.0635 0.00265,-0.0079 0.026458,-0.0635 0.00265,-0.0079 0.026458,-0.0635 0.00265,-0.0079 0.026458,-0.0635 0.00265,-0.0079 0.026458,-0.0635 0.00265,-0.0066 0.026458,-0.06086 0.00265,-0.0079 0.026458,-0.06085 0.00265,-0.0079 0.026458,-0.0635 0.00265,-0.0053 0.029104,-0.0635 0.00265,-0.0053 0.029104,-0.06085 0.00265,-0.0053 0.026458,-0.06085 0.00265,-0.0079 0.029104,-0.06085 0.00265,-0.0053 0.029104,-0.06086 0.00265,-0.0053 0.029104,-0.06085 0.00265,-0.0053 0.029104,-0.06085 0.00265,-0.0079 0.029104,-0.06085 0.00265,-0.0053 0.029104,-0.06085 0.00265,-0.0079 0.029104,-0.06085 0.00265,-0.0053 0.029104,-0.06085 0.00265,-0.0053 0.029104,-0.06085 0.00265,-0.0053 0.029104,-0.06085 0.00265,-0.0053 0.03175,-0.05821 0.00265,-0.0053 0.03175,-0.06085 0.00529,-0.0079 0.03175,-0.06085 0.00265,-0.0053 0.03175,-0.06085 0.00265,-0.0079 0.03175,-0.05821 0.00265,-0.0053 0.03175,-0.05821 0.00265,-0.0053 0.03175,-0.05821 0.00265,-0.0079 0.03175,-0.05821 0.00529,-0.0053 0.03175,-0.05821 0.00265,-0.0079 0.03175,-0.05821 0.00529,-0.0053 0.03175,-0.05821 0.00265,-0.0053 0.03175,-0.05821 0.00529,-0.0079 0.034396,-0.05821 0.00265,-0.0053 0.03175,-0.05821 0.00265,-0.0053 0.034396,-0.05821 0.00265,-0.0053 0.034396,-0.05821 0.00265,-0.0053 0.034396,-0.05821 0.00529,-0.0053 0.034396,-0.05821 0.00265,-0.0053 0.034396,-0.05821 0.00529,-0.0053 0.034396,-0.05821 0.00265,-0.0053 0.034396,-0.05821 0.00529,-0.0053 0.034396,-0.05821 0.00265,-0.0053 0.037042,-0.05821 0.00529,-0.0079 0.037042,-0.05821 0.00265,-0.0053 0.034396,-0.05556 0.00529,-0.0053 0.037042,-0.05556 0.00529,-0.0053 0.034396,-0.05821 0.00265,-0.0053 0.037042,-0.05556 0.00265,-0.0053 0.037042,-0.05556 0.00529,-0.0053 0.037042,-0.05821 0.00529,-0.0053 0.037042,-0.05556 0.00265,-0.0079 0.037042,-0.05556 0.00265,-0.0053 0.037042,-0.05556 0.00265,-0.0053 0.039687,-0.05556 0.00529,-0.0053 0.037042,-0.05556 0.00529,-0.0053 0.039687,-0.05556 0.00265,-0.0053 0.039687,-0.05556 0.00265,-0.0053 0.039687,-0.05556 0.00265,-0.0053 0.039688,-0.05556 0.00529,-0.0053 0.039687,-0.05556 0.00265,-0.0053 0.039687,-0.05556 0.00529,-0.0053 0.039687,-0.05292 0.00265,-0.0053 0.039687,-0.05556 0.00529,-0.0053 0.039688,-0.05292 0.00529,-0.0053 0.039688,-0.05292 0.00529,-0.0053 0.039687,-0.05292 0.00529,-0.0053 0.039688,-0.05292 0.00265,-0.0053 0.039687,-0.05292 0.00529,-0.0053 0.042333,-0.05292 0.00529,-0.0053 0.042333,-0.05292 0.00529,-0.0053 0.042333,-0.05292 0.00529,-0.0053 0.042333,-0.05292 0.00529,-0.0053 0.042333,-0.05292 0.00529,-0.0079 0.042333,-0.05292 0.00265,-0.0053 0.042333,-0.05292 0.00529,-0.0053 0.042333,-0.05292 0.00529,-0.0053 0.042333,-0.05027 0.00529,-0.0053 0.042333,-0.05292 0.00529,-0.0053 0.042333,-0.05292 0.00529,-0.0053 0.044979,-0.05027 0.00529,-0.0053 0.042333,-0.05292 0.00529,-0.0053 0.042333,-0.05027 0.00529,-0.0053 0.042333,-0.05292 0.00529,-0.0053 0.044979,-0.05292 0.00265,-0.0053 0.044979,-0.05027 0.00529,-0.0053 0.044979,-0.05027 0.00529,-0.0053 0.044979,-0.05027 0.00529,-0.0053 0.044979,-0.05027 0.00265,-0.0053 0.044979,-0.05027 0.00529,-0.0053 0.044979,-0.05027 0.00529,-0.0053 0.044979,-0.05027 0.00265,-0.0053 0.044979,-0.05027 0.00529,-0.0053 0.047625,-0.05027 0.00265,-0.0053 0.047625,-0.05027 0.00529,-0.0053 0.050271,-0.04762 0.00529,-0.0053 0.047625,-0.05027 0.00529,-0.0053 0.047625,-0.05027 0.00529,-0.0053 0.047625,-0.04762 0.00529,-0.0053 0.047625,-0.04763 0.00529,-0.0053 0.047625,-0.04762 0.00529,-0.0053 0.050271,-0.04762 0.00529,-0.0053 0.047625,-0.04762 0.00529,-0.0053 0.047625,-0.04762 0.00529,-0.0053 0.047625,-0.04762 0.00529,-0.0053 0.047625,-0.04762 0.00529,-0.0053 0.047625,-0.04762 0.00529,-0.0053 0.047625,-0.04763 0.00529,-0.0053 0.047625,-0.04762 0.00529,-0.0053 0.050271,-0.04498 0.00529,-0.0053 0.050271,-0.04498 0.00529,-0.0053 0.050271,-0.04762 0.00529,-0.0053 0.050271,-0.04762 0.00529,-0.0026 0.050271,-0.04498 0.00529,-0.0026 0.050271,-0.04498 0.00529,-0.0053 0.050271,-0.04498 0.00529,-0.0053 0.050271,-0.04498 0.00529,-0.0053 0.050271,-0.04498 0.00529,-0.0026 0.052917,-0.04498 0.00529,-0.0053 0.052917,-0.04498 0.00529,-0.0053 0.052917,-0.04498 0.00529,-0.0053 0.052917,-0.04233 0.00529,-0.0053 0.052917,-0.04233 0.00529,-0.0053 0.050271,-0.04233 0.00529,-0.0053 0.052917,-0.04233 0.00529,-0.0053 0.052917,-0.04233 0.00529,-0.0026 0.052917,-0.04233 0.00529,-0.0053 0.052917,-0.04233 0.00529,-0.0053 0.052917,-0.04233 0.00529,-0.0053 0.055562,-0.04233 0.00529,-0.0053 0.052917,-0.04233 0.00529,-0.0053 0.055562,-0.04233 0.00529,-0.0053 0.055562,-0.04233 0.00529,-0.0053 0.052917,-0.04233 0.00529,-0.0026 0.055563,-0.04233 0.00529,-0.0053 0.052917,-0.04233 0.00529,-0.0053 0.055563,-0.03969 0.00529,-0.0053 0.055562,-0.04233 0.00529,-0.0053 0.055563,-0.03969 0.00529,-0.0026 0.055562,-0.03969 0.00794,-0.0053 0.055562,-0.03969 0.00529,-0.0026 0.055562,-0.03969 0.00529,-0.0053 0.055563,-0.04233 0.00529,-0.0026 0.058208,-0.03969 0.00529,-0.0053 0.055563,-0.03969 0.00794,-0.0026 0.055563,-0.03969 0.00529,-0.0026 0.055563,-0.03969 0.00529,-0.0026 0.058208,-0.03969 0.00529,-0.0053 0.055562,-0.03969 0.00529,-0.0026 0.058208,-0.03704 0.00529,-0.0026 0.055563,-0.03969 0.00794,-0.0053 0.058208,-0.03704 0.00529,-0.0053 0.058208,-0.03969 0.00529,-0.0053 0.058208,-0.03704 0.00794,-0.0026 0.058208,-0.03704 0.00529,-0.0053 0.058208,-0.03704 0.00529,-0.0026 0.058208,-0.03704 0.00529,-0.0026 0.058208,-0.03704 0.00529,-0.0026 0.058208,-0.03704 0.00794,-0.0026 0.058208,-0.0344 h 0.00265 l 26.5932711,-16.404166 0.0026,-0.0026 0.05556,-0.0344 0.0053,-0.0026 0.05821,-0.03704 0.0079,-0.0053 0.05821,-0.0344 0.0079,-0.0053 0.05821,-0.0344 0.0079,-0.0053 0.05821,-0.0344 0.0079,-0.0026 0.06085,-0.0344 0.0053,-0.0053 0.05821,-0.0344 0.0079,-0.0026 0.05821,-0.03439 0.0053,-0.0026 0.06085,-0.03175 0.0053,-0.0053 0.06085,-0.03175 0.0053,-0.0053 0.05821,-0.03175 0.0079,-0.0026 0.06085,-0.03175 0.0053,-0.0053 0.05821,-0.03175 0.0079,-0.0053 0.05821,-0.03175 0.0079,-0.0053 0.05821,-0.03175 0.0053,-0.0053 0.06085,-0.03175 0.0053,-0.0026 0.05821,-0.03175 0.0079,-0.0026 0.05821,-0.03175 0.0079,-0.0026 0.06085,-0.03175 0.0079,-0.0026 0.06085,-0.03175 0.0053,-0.0026 0.06085,-0.0291 0.0079,-0.0026 0.06085,-0.0291 0.0079,-0.0026 0.05821,-0.0291 0.0079,-0.0026 0.06085,-0.0291 0.0053,-0.0026 0.06085,-0.0291 0.0079,-0.0026 0.06085,-0.0291 0.0079,-0.0053 0.06085,-0.0291 0.0079,-0.0026 0.06085,-0.0291 0.0079,-0.0026 0.06085,-0.02646 0.0079,-0.0026 0.06085,-0.02646 0.0053,-0.0053 0.06085,-0.02646 0.0053,-0.0026 0.06085,-0.02646 0.0079,-0.0053 0.06085,-0.02646 0.0079,-0.0026 0.06085,-0.02646 0.0079,-0.0026 0.06085,-0.02646 0.0079,-0.0026 0.06086,-0.02646 0.0079,-0.0026 0.06085,-0.02646 0.0079,-0.0026 0.06085,-0.02381 0.0079,-0.0026 0.06086,-0.02646 0.0079,-0.0026 0.0635,-0.02646 0.0079,-0.0026 0.0635,-0.02646 0.0079,-0.0053 0.06085,-0.02381 0.0053,-0.0026 0.0635,-0.02381 0.0079,-0.0026 0.06085,-0.02381 0.0053,-0.0026 0.0635,-0.02381 0.0079,-0.0026 0.0635,-0.02117 0.0079,-0.0026 0.0635,-0.02381 0.0079,-0.0026 0.0635,-0.02381 0.0079,-0.0026 0.0635,-0.02117 0.0079,-0.0026 0.0635,-0.02117 0.0079,-0.0026 0.06085,-0.02117 0.0079,-0.0026 0.0635,-0.02117 0.0079,-0.0026 0.06085,-0.02117 0.0079,-0.0026 0.0635,-0.02117 0.0053,-0.0026 0.0635,-0.02117 0.0079,-0.0026 0.0635,-0.02117 0.0079,-0.0026 0.0635,-0.02117 0.0079,-0.0026 0.0635,-0.01852 0.0053,-0.0026 0.0635,-0.01852 0.0079,-0.0026 0.0635,-0.01852 h 0.0079 l 0.0635,-0.01852 0.0079,-0.0026 0.0635,-0.01852 0.0053,-0.0026 0.0635,-0.01852 0.0053,-0.0026 0.0635,-0.01852 0.0079,-0.0026 0.0635,-0.01852 0.0079,-0.0026 0.0635,-0.01852 0.0079,-0.0026 0.0635,-0.01588 0.0079,-0.0026 0.0635,-0.01588 0.0053,-0.0026 0.0635,-0.01852 0.0064,-0.0026 0.06615,-0.01588 h 0.0053 l 0.0635,-0.01852 h 0.0079 l 0.06535,-0.01588 0.0079,-0.0026 0.06615,-0.01588 0.0079,-0.0026 0.0635,-0.01588 h 0.0079 l 0.06615,-0.01587 h 0.0079 l 0.0635,-0.01588 0.0079,-0.0026 0.0635,-0.01323 0.0079,-0.0026 0.0635,-0.01588 0.0079,-0.0026 0.0635,-0.01323 h 0.0079 l 0.0635,-0.01323 0.0079,-0.0026 0.0635,-0.01323 h 0.0053 l 0.0635,-0.01323 0.0079,-0.0026 0.06615,-0.01323 h 0.0053 l 0.06615,-0.01323 0.0053,-0.0026 0.06615,-0.01323 0.0079,-0.0026 0.06615,-0.01323 0.0079,-0.0026 0.06614,-0.01058 h 0.0079 l 0.0635,-0.01058 0.0079,-0.0026 0.06615,-0.01323 0.0079,-0.0026 0.06615,-0.01058 h 0.0079 l 0.0635,-0.01058 0.0079,-0.0026 0.06614,-0.01058 0.0079,-0.0026 0.0635,-0.01058 h 0.0053 l 0.0635,-0.01058 h 0.0079 l 0.06615,-0.01058 0.0079,-0.0026 0.06615,-0.01058 h 0.0079 l 0.06615,-0.01058 h 0.0079 l 0.06615,-0.01058 h 0.0079 l 0.06615,-0.0079 h 0.0079 l 0.0635,-0.0079 h 0.0079 l 0.06615,-0.0079 0.0079,-0.0026 0.06615,-0.0079 0.0053,-0.0026 0.06615,-0.0053 h 0.0079 l 0.0635,-0.0079 h 0.0079 l 0.0635,-0.0079 h 0.0079 l 0.06615,-0.0079 h 0.0079 l 0.06615,-0.0079 h 0.0079 l 0.0635,-0.0053 h 0.0079 l 0.06615,-0.0079 0.0079,-0.0026 0.06615,-0.0053 0.0079,-0.0026 0.06615,-0.0053 h 0.0079 l 0.06509,-0.0053 h 0.0079 l 0.06615,-0.0053 h 0.0079 l 0.06615,-0.0026 0.0079,-0.0026 0.06615,-0.0053 0.0053,-0.0026 0.06614,-0.0026 h 0.0079 l 0.06615,-0.0053 h 0.0053 l 0.06615,-0.0026 h 0.0079 l 0.06615,-0.0026 h 0.0079 l 0.06615,-0.0026 h 0.0079 l 0.06615,-0.0026 0.0079,-0.0026 0.06615,-0.0026 h 0.0079 l 0.06615,-0.0026 h 0.0079 l 0.06615,-0.0026 h 0.0079 l 0.06615,-0.0026 h 0.0079 l 0.06615,-0.0026 h 0.0053 l 0.06615,-0.0026 h 0.08202 l 0.06615,-0.0026 h 0.153458 z m -0.06085,7.14375 h -0.04339 l -0.04339,5.29e-4 h -0.04313 l -0.04498,0.0011 -0.04498,0.0011 -0.04498,0.0013 -0.04498,0.0026 -0.04498,0.0026 -0.04498,0.0026 -0.04233,0.0026 -0.04498,0.0026 -0.04233,0.0026 -0.04233,0.0026 -0.04233,0.0026 -0.04498,0.0026 -0.04233,0.0026 -0.04498,0.0053 -0.04498,0.0053 -0.04233,0.0053 -0.04498,0.0053 -0.04498,0.0053 -0.04498,0.0053 -0.04233,0.0053 -0.04498,0.0053 -0.04233,0.0053 -0.04233,0.0053 -0.04498,0.0053 -0.04233,0.0053 -0.04233,0.0053 -0.04233,0.0053 -0.04233,0.0053 -0.04498,0.0053 -0.04233,0.0079 -0.04233,0.0053 -0.04498,0.0079 -0.04233,0.0079 -0.04233,0.0079 -0.04233,0.0079 -0.04233,0.0079 -0.04233,0.0079 -0.04233,0.0079 -0.04233,0.0053 -0.04498,0.0079 -0.04233,0.0079 -0.04498,0.0079 -0.04233,0.0079 -0.04233,0.0079 -0.04233,0.0079 -0.04233,0.01058 -0.04233,0.01058 -0.04233,0.01058 -0.04233,0.0079 -0.04233,0.0079 -0.04233,0.01058 -0.04233,0.01058 -0.04233,0.01058 -0.04233,0.01058 -0.04233,0.01058 -0.04233,0.01058 -0.04233,0.01058 -0.04233,0.01058 -0.04233,0.01058 -0.04233,0.01058 -0.04233,0.01323 -0.04233,0.01058 -0.04233,0.01323 -0.03969,0.01323 -0.04233,0.01323 -0.04233,0.01323 -0.04233,0.01323 -0.04233,0.01323 -0.04233,0.01323 -0.03969,0.01323 -0.04233,0.01323 -0.04233,0.01588 -0.04233,0.01323 -0.04233,0.01323 -0.04233,0.01588 -0.04233,0.01323 -0.04233,0.01323 -0.03969,0.01323 -0.04233,0.01587 -0.04233,0.01588 -0.04233,0.01587 -0.03969,0.01587 -0.04233,0.01588 -0.03969,0.01587 -0.03969,0.01588 -0.04233,0.01852 -0.04233,0.01588 -0.04233,0.01587 -0.04233,0.01587 -0.03969,0.01852 -0.03969,0.01587 -0.04233,0.01852 -0.03969,0.01852 -0.03969,0.01852 -0.03969,0.01852 -0.04233,0.01852 -0.03969,0.01852 -0.04233,0.01852 -0.03969,0.01852 -0.03969,0.01852 -0.03969,0.01852 -0.04233,0.01852 -0.03969,0.01852 -0.03969,0.01852 -0.03969,0.02117 -0.03969,0.02117 -0.03969,0.01852 -0.03969,0.02117 -0.03969,0.01852 -0.03969,0.02117 -0.03969,0.02117 -0.03969,0.02117 -0.03969,0.02117 -0.03969,0.02117 -0.03969,0.02381 -0.03704,0.02117 -0.03969,0.02117 -0.03704,0.02117 -0.03969,0.02381 -0.03969,0.02381 -0.03969,0.02381 -0.03704,0.02117 -0.03969,0.02381 -0.03704,0.02381 -0.03969,0.02381 -0.03969,0.02381 -0.04233,0.02646 -26.564167,16.372417 -0.04498,0.0291 -0.04233,0.02646 -0.03969,0.02646 -0.03969,0.02646 -0.03969,0.02646 -0.03969,0.02646 -0.03969,0.02646 -0.03969,0.02646 -0.03969,0.02646 -0.03969,0.02646 -0.03969,0.02646 -0.03969,0.02646 -0.03969,0.0291 -0.03704,0.02646 -0.03704,0.02646 -0.03969,0.02646 -0.03704,0.02646 -0.03704,0.02646 -0.03704,0.02646 -0.03704,0.02646 -0.03704,0.02646 -0.03704,0.02646 -0.03704,0.0291 -0.03704,0.02646 -0.03704,0.0291 -0.03704,0.02911 -0.03704,0.0291 -0.03704,0.0291 -0.03704,0.0291 -0.03704,0.0291 -0.0344,0.0291 -0.03704,0.02911 -0.03704,0.0291 -0.0344,0.0291 -0.03704,0.0291 -0.03704,0.0291 -0.0344,0.0291 -0.03704,0.02911 -0.0344,0.0291 -0.03439,0.0291 -0.0344,0.03175 -0.0344,0.03175 -0.0344,0.0291 -0.0344,0.0291 -0.0344,0.03175 -0.0344,0.03175 -0.0344,0.03175 -0.0344,0.03175 -0.0344,0.03175 -0.0344,0.03175 -0.0344,0.03175 -0.03439,0.03175 -0.0344,0.03175 -0.0344,0.03175 -0.0344,0.03175 -0.03175,0.03175 -0.0344,0.03175 -0.03175,0.0344 -0.0344,0.03175 -0.03175,0.0344 -0.03175,0.03175 -0.03175,0.0344 -0.03175,0.03175 -0.03175,0.0344 -0.03175,0.0344 -0.03439,0.0344 -0.03175,0.03175 -0.03175,0.0344 -0.03175,0.0344 -0.03175,0.0344 -0.0291,0.0344 -0.03175,0.0344 -0.03175,0.0344 -0.03175,0.0344 -0.03175,0.03704 -0.03175,0.0344 -0.0291,0.0344 -0.0291,0.0344 -0.03175,0.03704 -0.029104,0.0344 -0.03175,0.0344 -0.029104,0.03704 -0.029104,0.0344 -0.029104,0.03704 -0.029104,0.03704 -0.029104,0.03704 -0.029104,0.03704 -0.029104,0.03704 -0.029104,0.03704 -0.026458,0.03704 -0.029104,0.03704 -0.029104,0.03704 -0.029104,0.03704 -0.029104,0.03704 -0.026458,0.03704 -0.026458,0.03704 -0.026458,0.03704 -0.026458,0.03969 -0.026458,0.03704 -0.026458,0.03704 -0.026458,0.03969 -0.026458,0.03704 -0.026458,0.03704 -0.026458,0.03704 -0.026458,0.03704 -0.023813,0.03969 -0.026458,0.03969 -0.026458,0.03704 -0.026458,0.03969 -0.023813,0.03969 -0.023813,0.03704 -0.023813,0.03969 -0.023813,0.03969 -0.023813,0.03969 -0.023813,0.03969 -0.026458,0.03969 -0.026458,0.03969 -0.023813,0.03969 -0.023813,0.03969 -0.023813,0.03969 -0.023813,0.03969 -0.023813,0.03969 -0.023813,0.03969 -0.023813,0.03969 -0.023813,0.03969 -0.023813,0.03969 -0.023813,0.03969 -0.023813,0.04233 -0.023813,0.03969 -0.023813,0.03969 -0.023813,0.04233 -0.021167,0.03969 -0.021167,0.04233 -0.021167,0.04233 -0.021167,0.04233 -0.021167,0.03969 -0.021167,0.03969 -0.021167,0.04233 -0.021167,0.03969 -0.021167,0.04233 -0.018521,0.03969 -0.021167,0.04233 -0.021167,0.04233 -0.021167,0.04233 -0.021167,0.04233 -0.021167,0.04233 -0.018521,0.04233 -0.018521,0.04233 -0.018521,0.04233 -0.018521,0.04233 -0.018521,0.04233 -0.018521,0.04233 -0.018521,0.04233 -0.018521,0.04233 -0.018521,0.04233 -0.015875,0.04233 -0.018521,0.04233 -0.018521,0.04498 -0.018521,0.04233 -0.018521,0.04233 -0.018521,0.04233 -0.015875,0.04233 -0.018521,0.04498 -0.018521,0.04233 -0.015875,0.04233 -0.015875,0.04498 -0.015875,0.04233 -0.015875,0.04498 -0.015875,0.04233 -0.015875,0.04498 -0.015875,0.04498 -0.015875,0.04498 -0.013229,0.04498 -0.015875,0.04233 -0.015875,0.04498 -0.013229,0.04498 -0.013229,0.04233 -0.013229,0.04498 -0.015875,0.04498 -0.013229,0.04233 -0.013229,0.04233 -0.013229,0.04498 -0.015875,0.04498 -0.013229,0.04498 -0.013229,0.04233 -0.013229,0.04498 -0.013229,0.04498 -0.013229,0.04498 -0.013229,0.04498 -0.013229,0.04498 -0.010583,0.04498 -0.010583,0.04498 -0.013229,0.04498 -0.010583,0.04498 -0.013229,0.04498 -0.010583,0.04498 -0.010583,0.04498 -0.010583,0.04762 -0.010583,0.04498 -0.010583,0.04498 -0.010583,0.04498 -0.010583,0.04498 -0.010583,0.04498 -0.010583,0.04498 -0.00794,0.04498 -0.010583,0.04498 -0.00794,0.04498 -0.00794,0.04763 -0.00794,0.04762 -0.00794,0.04762 -0.00794,0.04762 -0.00794,0.04498 -0.00794,0.04498 -0.00794,0.04762 -0.00794,0.04762 -0.00794,0.04498 -0.00794,0.04498 -0.00794,0.04498 -0.00794,0.04762 -0.00529,0.04762 -0.00529,0.04763 -0.00529,0.04498 -0.00794,0.04762 -0.00794,0.04498 -0.00529,0.04762 -0.00529,0.04763 -0.00529,0.04762 -0.00529,0.04762 -0.00529,0.04762 -0.00529,0.04763 -0.00529,0.04498 -0.00529,0.04762 -0.00529,0.04762 -0.00265,0.04763 -0.00529,0.04762 -0.00529,0.04762 -0.00265,0.04762 -0.00265,0.04763 -0.00265,0.04762 -0.00265,0.04762 -0.00265,0.04762 -0.00265,0.04763 -0.00265,0.04762 -0.00265,0.04762 -0.00265,0.04762 -0.00265,0.04763 v 0.04762 l -0.00265,0.04762 -0.00265,0.04762 v 0.04763 l -0.00265,0.04762 V 127.383 l 0.00265,0.0476 v 0.14288 l 0.00265,0.045 0.00265,0.0476 0.00265,0.0476 0.00265,0.0476 0.00265,0.0476 0.00265,0.0476 0.00265,0.0476 0.00265,0.0476 0.00265,0.0476 0.00529,0.0476 0.00265,0.0476 0.00265,0.0476 0.00265,0.0476 0.00529,0.045 0.00529,0.0476 0.00529,0.045 0.00265,0.0476 0.00529,0.045 0.00529,0.045 0.00529,0.045 0.00529,0.045 0.00529,0.0476 0.00529,0.045 0.00529,0.045 0.00529,0.0476 0.00529,0.0476 0.00529,0.045 0.00529,0.0476 0.00794,0.045 0.00794,0.045 0.00794,0.045 0.00794,0.045 0.00794,0.0476 0.00794,0.045 0.00794,0.045 0.00794,0.045 0.00794,0.045 0.010583,0.045 0.00794,0.045 0.00794,0.045 0.00794,0.045 0.010583,0.045 0.010583,0.045 0.00794,0.045 0.010583,0.045 0.010583,0.045 0.010583,0.045 0.010583,0.045 0.010583,0.045 0.010583,0.045 0.010583,0.045 0.010583,0.0423 0.013229,0.0423 0.010583,0.045 0.010583,0.045 0.010583,0.045 0.013229,0.045 0.010583,0.0423 0.010583,0.045 0.010583,0.0423 0.013229,0.045 0.010583,0.0423 0.013229,0.045 0.013229,0.045 0.013229,0.0423 0.013229,0.045 0.013229,0.045 0.013229,0.0423 0.013229,0.045 0.015875,0.0423 0.015875,0.0423 0.015875,0.0423 0.015875,0.0423 0.013229,0.0423 0.015875,0.045 0.015875,0.0423 0.015875,0.0423 0.015875,0.0423 0.015875,0.0423 0.015875,0.0423 0.015875,0.0423 0.015875,0.0423 0.015875,0.0423 0.015875,0.0423 0.018521,0.0423 0.018521,0.0423 0.015875,0.0423 0.015875,0.0423 0.015875,0.0423 0.015875,0.0423 0.015875,0.0423 0.018521,0.0423 0.018521,0.0423 0.018521,0.0423 0.018521,0.0423 0.018521,0.0423 0.018521,0.0423 0.018521,0.0423 0.018521,0.0423 0.018521,0.0423 0.018521,0.0423 0.018521,0.0423 0.018521,0.0397 0.021167,0.0423 0.021167,0.0397 0.021167,0.0423 0.021167,0.0397 0.021167,0.0397 0.021167,0.0397 0.021167,0.0397 0.021167,0.0397 0.021167,0.0397 0.023813,0.0397 0.021167,0.0397 0.021167,0.0397 0.021167,0.0397 0.023813,0.0397 0.023813,0.0397 0.021167,0.0397 0.021167,0.0397 0.021167,0.0397 0.023813,0.0397 0.021167,0.0397 0.023813,0.037 0.023813,0.0397 0.023813,0.037 0.023813,0.0397 0.023813,0.0397 0.023813,0.037 0.023812,0.037 0.023813,0.0371 0.023813,0.037 0.023813,0.0397 0.023813,0.0397 0.026458,0.037 0.023813,0.037 0.023813,0.0397 0.023813,0.037 0.023813,0.037 0.026458,0.037 0.026458,0.037 0.026458,0.0397 0.026458,0.037 0.026458,0.037 0.026458,0.037 0.026458,0.037 0.026458,0.0371 0.026458,0.037 0.026458,0.037 0.029104,0.037 0.029104,0.037 0.026458,0.037 0.026458,0.0371 0.026458,0.037 0.026458,0.037 0.029104,0.0344 0.029104,0.0344 0.029104,0.037 0.029104,0.0344 0.029104,0.037 0.029104,0.0344 0.029104,0.0344 0.029104,0.0344 0.029104,0.0344 0.029104,0.0344 0.029104,0.0344 0.029104,0.0344 0.029104,0.0344 0.029104,0.0344 0.029104,0.0344 0.029104,0.0344 0.03175,0.0344 0.03175,0.0344 0.0291,0.0344 0.03175,0.0317 0.03175,0.0344 0.03175,0.0317 0.03175,0.0344 0.0291,0.0344 0.03175,0.0344 0.03175,0.0317 0.03175,0.0318 0.03175,0.0317 0.03175,0.0317 0.03175,0.0344 0.03175,0.0318 0.03175,0.0317 0.03175,0.0318 0.03175,0.0317 0.03175,0.0317 0.0344,0.0318 0.03175,0.0317 0.03175,0.0318 0.0344,0.0317 0.03175,0.0318 0.03175,0.0317 0.0344,0.0317 0.0344,0.0291 0.0344,0.0291 0.03439,0.0318 0.0344,0.0317 0.0344,0.0291 0.0344,0.0291 0.0344,0.0317 0.0344,0.0318 0.03439,0.0291 0.03704,0.0291 0.03704,0.0291 0.03704,0.0291 0.0344,0.0291 0.0344,0.0291 0.03704,0.0291 0.0344,0.0291 0.03704,0.0265 0.0344,0.0291 0.03704,0.0291 0.03704,0.0291 0.03704,0.0291 0.0344,0.0265 0.03704,0.0291 0.03704,0.0265 0.03704,0.0291 0.03704,0.0291 0.03704,0.0264 0.03704,0.0265 0.03969,0.0265 0.03704,0.0265 0.03704,0.0265 0.03704,0.0265 0.03704,0.0265 0.03704,0.0265 0.03704,0.0265 0.03969,0.0265 0.03969,0.0238 0.03969,0.0265 0.03704,0.0265 0.03969,0.0265 0.03969,0.0264 0.03704,0.0238 0.03969,0.0238 0.03969,0.0238 0.03969,0.0238 0.03969,0.0238 0.03969,0.0238 0.04233,0.0238 0.03969,0.0238 0.03969,0.0238 0.04498,0.0265 27.696583,16.19249 0.0344,0.0212 0.0291,0.0159 0.03175,0.0159 0.03175,0.0159 0.03175,0.0159 0.0291,0.0185 0.03175,0.0159 0.03175,0.0159 0.03175,0.0159 0.03175,0.0185 0.03175,0.0159 0.03175,0.0159 0.03175,0.0159 0.03175,0.0159 0.03175,0.0159 0.03175,0.0159 0.03175,0.0159 0.03175,0.0159 0.02911,0.0159 0.03175,0.0159 0.03175,0.0159 0.03175,0.0132 0.03175,0.0159 0.03175,0.0132 0.03175,0.0132 0.03175,0.0132 0.03175,0.0159 0.03175,0.0159 0.03175,0.0132 0.03175,0.0159 0.03175,0.0132 0.03175,0.0132 0.03175,0.0132 0.03175,0.0132 0.03175,0.0132 0.03175,0.0132 0.03175,0.0132 0.03175,0.0132 0.03175,0.0132 0.03175,0.0106 0.03439,0.0132 0.03175,0.0132 0.03175,0.0132 0.03175,0.0132 0.03175,0.0132 0.03175,0.0106 0.03175,0.0132 0.03175,0.0106 0.03175,0.0106 0.0344,0.0106 0.03175,0.0106 0.0291,0.0106 0.06879,0.0212 0.06615,0.0212 0.06615,0.0185 0.06615,0.0185 0.06614,0.0185 0.06615,0.0185 0.06615,0.0185 0.06615,0.0185 0.06615,0.0185 0.06614,0.0159 0.06615,0.0159 0.06615,0.0159 0.06615,0.0132 0.06615,0.0159 0.06615,0.0132 0.06614,0.0132 0.06615,0.0132 0.06615,0.0106 0.06615,0.0132 0.06615,0.0106 0.06615,0.0106 0.06879,0.0106 0.06615,0.0106 0.06879,0.008 0.06879,0.008 0.06879,0.008 0.06879,0.005 0.06615,0.005 0.06879,0.005 0.06615,0.005 0.06879,0.005 0.06879,0.005 0.06615,0.005 0.06615,0.003 0.06615,0.003 0.06879,0.003 h 0.338666 l 0.06879,-0.003 h 0.06879 l 0.06879,-0.003 0.06879,-0.003 0.06879,-0.005 0.06879,-0.005 0.06879,-0.003 0.06879,-0.005 0.06879,-0.005 0.06879,-0.005 0.06615,-0.005 0.06879,-0.008 0.06879,-0.008 0.06615,-0.008 0.06879,-0.008 0.06614,-0.0106 0.06879,-0.0106 0.06615,-0.0106 0.06879,-0.0106 0.06614,-0.0106 0.06615,-0.0132 0.06615,-0.0106 0.06879,-0.0132 0.06615,-0.0132 0.06614,-0.0159 0.06615,-0.0132 0.06615,-0.0159 0.06615,-0.0159 0.06615,-0.0159 0.06615,-0.0159 0.06614,-0.0185 0.06615,-0.0185 0.06615,-0.0185 0.06615,-0.0185 0.06879,-0.0212 0.03175,-0.0106 0.03175,-0.0106 0.03175,-0.0106 0.03439,-0.0106 0.03175,-0.0106 0.0344,-0.0106 0.03175,-0.0106 0.03175,-0.0106 0.0344,-0.0106 0.03175,-0.0106 0.03175,-0.0106 0.0344,-0.0132 0.03175,-0.0106 0.0344,-0.0106 0.03175,-0.0132 0.03175,-0.0106 0.03175,-0.0106 0.03175,-0.0106 0.0344,-0.0132 0.03175,-0.0106 0.03175,-0.0132 0.03175,-0.0132 0.03175,-0.0132 0.03175,-0.0132 0.03175,-0.0132 0.03175,-0.0132 0.03175,-0.0132 0.03175,-0.0132 0.03175,-0.0132 0.03175,-0.0132 0.03175,-0.0159 0.03175,-0.0159 0.03175,-0.0132 0.03175,-0.0159 0.03175,-0.0159 0.03175,-0.0132 0.03175,-0.0159 0.03175,-0.0159 0.03175,-0.0159 0.0291,-0.0159 0.03175,-0.0159 0.03175,-0.0159 0.03175,-0.0159 0.03175,-0.0159 0.03175,-0.0159 0.03175,-0.0159 0.03175,-0.0159 0.03175,-0.0159 0.0291,-0.0159 0.03175,-0.0159 0.03175,-0.0159 0.0344,-0.0185 30.683729,-17.10002 0.03704,-0.0185 0.0344,-0.0185 0.03175,-0.0185 0.03175,-0.0185 0.03175,-0.0185 0.03175,-0.0212 0.0344,-0.0185 0.03175,-0.0185 0.03175,-0.0185 0.03175,-0.0185 0.03175,-0.0212 0.03175,-0.0212 0.03175,-0.0185 0.03175,-0.0185 0.03175,-0.0185 0.03175,-0.0212 0.03175,-0.0212 0.03175,-0.0185 0.03175,-0.0212 0.03175,-0.0185 0.0291,-0.0212 0.0291,-0.0212 0.0291,-0.0212 0.02911,-0.0212 0.0291,-0.0212 0.03175,-0.0212 0.0291,-0.0212 0.03175,-0.0212 0.0291,-0.0212 0.0291,-0.0212 0.0291,-0.0212 0.02911,-0.0212 0.0291,-0.0212 0.03175,-0.0212 0.0291,-0.0238 0.0291,-0.0212 0.0291,-0.0238 0.0291,-0.0212 0.02911,-0.0238 0.0291,-0.0238 0.0291,-0.0238 0.0291,-0.0212 0.0291,-0.0212 0.0291,-0.0238 0.02646,-0.0238 0.0291,-0.0238 0.0291,-0.0238 0.02646,-0.0212 0.02911,-0.0238 0.0291,-0.0264 0.02646,-0.0238 0.0291,-0.0238 0.02646,-0.0238 0.02646,-0.0238 0.02646,-0.0265 0.0291,-0.0238 0.02646,-0.0265 0.02646,-0.0238 0.02646,-0.0265 0.02646,-0.0265 0.02646,-0.0238 0.02646,-0.0265 0.02646,-0.0238 0.02646,-0.0265 0.02646,-0.0265 0.02646,-0.0265 0.02646,-0.0265 0.02381,-0.0265 0.02646,-0.0265 0.02381,-0.0265 0.02646,-0.0265 0.02646,-0.0265 0.02646,-0.0265 0.02381,-0.0265 0.02381,-0.0265 0.02381,-0.0265 0.02381,-0.0265 0.02646,-0.0265 0.02381,-0.0265 0.02381,-0.0265 0.02381,-0.0265 0.02381,-0.0265 0.02381,-0.0265 0.02381,-0.0265 0.02381,-0.0265 0.02381,-0.0291 0.02381,-0.0291 0.02381,-0.0291 0.02381,-0.0265 0.02381,-0.0265 0.02381,-0.0265 0.02381,-0.0291 0.02381,-0.0265 0.02381,-0.0291 0.02117,-0.0265 0.02117,-0.0291 0.02117,-0.0291 0.02117,-0.0265 0.02381,-0.0291 0.02117,-0.0291 0.02117,-0.0291 0.02117,-0.0291 0.02117,-0.0291 0.02117,-0.0291 0.02117,-0.0291 0.02117,-0.0291 0.02117,-0.0291 0.02117,-0.0291 0.02117,-0.0291 0.02117,-0.0291 0.02117,-0.0291 0.01852,-0.0291 0.01852,-0.0317 0.02117,-0.0318 0.02117,-0.0291 0.01852,-0.0291 0.01852,-0.0291 0.02117,-0.0317 0.02117,-0.0291 0.01852,-0.0291 0.01852,-0.0317 0.01852,-0.0318 0.01852,-0.0317 0.01852,-0.0318 0.01852,-0.0291 0.01852,-0.0317 0.01852,-0.0317 0.01852,-0.0291 0.01852,-0.0318 0.01852,-0.0317 0.01852,-0.0318 0.01587,-0.0317 0.01588,-0.0317 0.01852,-0.0318 0.01852,-0.0317 0.01588,-0.0318 0.01852,-0.0317 0.01852,-0.0317 0.01587,-0.0318 0.01588,-0.0317 0.01587,-0.0344 0.01588,-0.0318 0.01852,-0.0317 0.01852,-0.0317 0.01587,-0.0318 0.01587,-0.0317 0.01588,-0.0318 0.01587,-0.0344 0.01588,-0.0317 0.01587,-0.0317 0.01588,-0.0344 0.01587,-0.0318 0.01587,-0.0317 0.01588,-0.0344 0.01587,-0.0344 0.01588,-0.0344 0.01587,-0.0317 0.01323,-0.0318 0.01323,-0.0344 0.01323,-0.0344 0.01323,-0.0344 0.01323,-0.0318 0.01323,-0.0344 0.01323,-0.0344 0.01323,-0.0344 0.01323,-0.0317 0.01323,-0.0344 0.01323,-0.0344 0.01323,-0.0344 0.01323,-0.0344 0.01323,-0.0344 0.01058,-0.0344 0.01058,-0.0344 0.01058,-0.0344 0.01058,-0.0344 0.01323,-0.0344 0.01323,-0.0344 0.01323,-0.0344 0.01323,-0.0344 0.01058,-0.0344 0.01323,-0.0344 0.01058,-0.0344 0.01058,-0.0344 0.01323,-0.0344 0.01058,-0.0344 0.01058,-0.0344 0.01058,-0.0344 0.01058,-0.0344 0.0079,-0.0344 0.01058,-0.0344 0.01058,-0.0344 0.01058,-0.0344 0.01058,-0.0344 0.0079,-0.0344 0.0079,-0.037 0.01058,-0.0344 0.0079,-0.0344 0.0079,-0.037 0.01058,-0.0344 0.0079,-0.0344 0.0079,-0.0344 0.0079,-0.0344 0.0079,-0.037 0.0079,-0.0344 0.0079,-0.0344 0.0053,-0.037 0.0079,-0.037 0.0079,-0.0344 0.0053,-0.037 0.0079,-0.0344 0.0079,-0.037 0.0079,-0.037 0.0079,-0.0344 0.0079,-0.037 0.0053,-0.037 0.0079,-0.037 0.0053,-0.0344 0.0079,-0.0344 0.0053,-0.037 0.0053,-0.037 0.0053,-0.037 0.0053,-0.037 0.0053,-0.037 0.0053,-0.037 0.0053,-0.037 0.0026,-0.037 0.0053,-0.0344 0.0026,-0.037 0.0053,-0.0371 0.0053,-0.0344 0.0053,-0.037 0.0026,-0.037 0.0026,-0.037 0.0026,-0.037 0.0026,-0.037 0.0053,-0.037 0.0026,-0.037 0.0026,-0.037 0.0026,-0.037 0.0026,-0.037 0.0026,-0.037 0.0026,-0.037 0.0026,-0.037 0.0026,-0.037 0.0026,-0.037 0.0026,-0.037 0.0026,-0.037 v -0.0741 l 0.0026,-0.037 v -36.6243 l -0.0026,-0.03254 -0.0026,-0.0344 v -0.0344 l -0.0026,-0.0344 v -0.0344 l -0.0026,-0.0344 v -0.0344 l -0.0026,-0.0344 -0.0026,-0.03175 -0.0026,-0.0344 -0.0026,-0.0344 -0.0026,-0.0344 -0.0026,-0.03175 -0.0026,-0.0344 -0.0026,-0.03175 -0.0026,-0.0344 -0.0053,-0.03439 -0.0026,-0.03175 -0.0026,-0.03175 -0.0053,-0.03175 -0.0026,-0.03175 -0.0053,-0.0344 -0.0026,-0.03175 -0.0053,-0.03175 -0.0053,-0.0344 -0.0026,-0.0344 -0.0026,-0.03175 -0.0053,-0.0291 -0.01058,-0.06959 -0.0079,-0.06747 -0.01058,-0.06879 -0.01058,-0.06615 -0.01323,-0.06615 -0.01323,-0.06614 -0.01058,-0.06615 -0.01323,-0.06615 -0.01588,-0.06615 -0.01587,-0.06615 -0.01588,-0.06615 -0.01587,-0.06615 -0.01587,-0.06615 -0.01588,-0.06615 -0.01587,-0.06615 -0.01852,-0.06615 -0.01852,-0.06615 -0.01852,-0.06614 -0.02117,-0.06615 -0.01852,-0.0635 -0.02117,-0.0635 -0.02117,-0.0635 -0.02117,-0.0635 -0.02117,-0.0635 -0.02381,-0.0635 -0.02381,-0.0635 -0.02381,-0.06085 -0.02381,-0.0635 -0.02381,-0.0635 -0.02381,-0.0635 -0.02646,-0.06086 -0.02381,-0.0635 -0.02646,-0.06085 -0.02646,-0.06085 -0.02646,-0.06085 -0.0291,-0.06085 -0.02646,-0.06085 -0.0291,-0.06086 -0.0291,-0.06085 -0.0291,-0.05821 -0.03175,-0.06085 -0.0291,-0.06085 -0.03175,-0.06085 -0.03175,-0.05821 -0.03175,-0.05821 -0.03175,-0.05821 -0.03175,-0.05821 -0.03175,-0.05821 -0.0344,-0.05821 -0.0344,-0.05821 -0.0344,-0.05821 -0.03704,-0.05821 -0.0344,-0.05556 -0.0344,-0.05556 -0.03704,-0.05556 -0.03704,-0.05556 -0.03704,-0.05556 -0.03704,-0.05556 -0.03704,-0.05556 -0.03704,-0.05556 -0.03969,-0.05292 -0.03969,-0.05292 -0.03969,-0.05292 -0.03969,-0.05292 -0.03969,-0.05292 -0.04233,-0.05292 -0.04233,-0.05292 -0.04233,-0.05292 -0.04233,-0.05292 -0.04233,-0.05027 -0.04498,-0.05027 -0.04233,-0.05027 -0.04498,-0.05027 -0.04498,-0.05027 -0.04498,-0.05027 -0.04498,-0.05027 -0.04498,-0.05027 -0.04762,-0.04763 -0.04762,-0.04762 -0.04762,-0.04762 -0.04763,-0.04762 -0.04762,-0.04763 -0.05027,-0.04762 -0.05027,-0.04762 -0.05027,-0.04498 -0.05027,-0.04498 -0.05027,-0.04498 -0.05027,-0.04498 -0.05027,-0.04498 -0.05292,-0.04498 -0.05292,-0.04233 -0.05292,-0.04233 -0.05027,-0.04233 -0.05556,-0.04498 -0.02381,-0.01852 -0.02646,-0.02117 -0.02646,-0.02117 -0.02646,-0.02117 -0.02646,-0.02117 -0.02646,-0.01852 -0.02646,-0.02117 -0.02646,-0.02117 -0.0291,-0.02117 -0.0291,-0.02117 -0.02646,-0.02117 -0.02646,-0.02117 -0.02646,-0.02117 -0.02646,-0.01852 -0.02646,-0.02117 -0.0291,-0.02117 -0.02646,-0.01852 -0.02646,-0.01852 -0.02911,-0.02117 -0.0291,-0.01852 -0.0291,-0.01852 -0.02646,-0.01852 -0.0291,-0.01852 -0.02911,-0.01852 -0.0291,-0.01852 -0.0291,-0.01852 -0.0291,-0.01852 -0.0291,-0.01852 -0.0291,-0.01852 -0.02911,-0.01852 -0.0291,-0.01852 -0.0291,-0.01587 -0.0291,-0.01588 -0.0344,-0.01852 -29.939985,-17.565422 -0.04233,-0.02593 -0.03836,-0.02117 -0.03969,-0.02381 -0.03969,-0.02381 -0.03889,-0.02196 -0.03969,-0.02117 -0.03836,-0.02117 -0.03969,-0.02117 -0.03969,-0.02117 -0.03969,-0.02117 -0.03889,-0.02117 -0.03969,-0.02117 -0.03969,-0.02117 -0.03969,-0.02117 -0.03969,-0.02117 -0.03969,-0.02117 -0.03969,-0.02117 -0.04048,-0.01852 -0.03969,-0.02117 -0.03969,-0.01852 -0.03969,-0.01852 -0.03969,-0.02117 -0.04101,-0.01852 -0.03969,-0.01852 -0.03969,-0.01852 -0.04127,-0.01852 -0.03969,-0.01852 -0.03969,-0.01587 -0.04101,-0.01852 -0.04022,-0.01852 -0.03969,-0.01852 -0.04101,-0.01587 -0.03969,-0.01588 -0.04233,-0.01587 -0.04075,-0.01852 -0.0418,-0.01587 -0.04233,-0.01852 -0.04233,-0.01588 -0.04101,-0.01587 -0.04101,-0.01588 -0.04154,-0.01587 -0.04233,-0.01588 -0.04233,-0.01587 -0.03969,-0.01587 -0.03969,-0.01323 -0.03969,-0.01323 -0.04233,-0.01587 -0.04233,-0.01323 -0.03969,-0.01323 -0.04233,-0.01323 -0.04233,-0.01323 -0.03969,-0.01323 -0.04233,-0.01323 -0.04233,-0.01323 -0.04233,-0.01323 -0.03969,-0.01323 -0.04233,-0.01323 -0.04233,-0.01323 -0.04233,-0.01323 -0.04233,-0.01058 -0.04233,-0.01323 -0.04233,-0.01058 -0.04233,-0.01323 -0.04233,-0.01058 -0.04233,-0.01058 -0.04233,-0.01058 -0.04233,-0.01323 -0.04233,-0.01058 -0.04233,-0.01058 -0.04233,-0.0079 -0.04233,-0.01058 -0.04233,-0.01058 -0.04233,-0.01058 -0.04233,-0.0079 -0.04233,-0.01058 -0.04233,-0.0079 -0.04233,-0.0079 -0.04233,-0.01058 -0.04233,-0.0079 -0.04233,-0.0079 -0.04233,-0.0079 -0.04233,-0.0079 -0.04233,-0.0079 -0.04233,-0.0079 -0.04498,-0.0079 -0.04233,-0.0053 -0.04233,-0.0053 -0.04233,-0.0053 -0.04233,-0.0053 -0.04233,-0.0079 -0.04233,-0.0079 -0.04233,-0.0053 -0.04498,-0.0079 -0.04233,-0.0053 -0.04233,-0.0079 -0.04233,-0.0053 -0.04233,-0.0053 -0.04233,-0.0053 -0.04233,-0.0053 -0.04233,-0.0053 -0.04498,-0.0053 -0.04233,-0.0026 -0.04233,-0.0053 -0.04233,-0.0053 -0.04233,-0.0026 -0.04233,-0.0026 -0.04233,-0.0026 -0.04233,-0.0026 -0.04233,-0.0026 -0.04498,-0.0026 -0.04498,-0.0026 -0.04233,-0.0026 -0.04233,-0.0026 h -0.04233 l -0.04233,-0.0026 -0.04233,-0.0026 h -0.04498 l -0.04233,-0.0026 -0.04233,-0.0026 -0.03969,-0.0026 -0.04233,-0.0026 h -0.08731 l -0.04233,-0.0026 h -0.08467 z"
           id="path305"
           style="clip-rule:evenodd;fill-rule:evenodd;stroke-width:0.264583;stroke-linejoin:round;stroke-miterlimit:1.414" /><path
           fill="#ffffff"
           fill-rule="nonzero"
           d="M 24.635354,137.34059 V 82.513634 H 36.106099 V 102.48438 H 55.133874 V 82.513634 H 66.637957 V 137.34059 H 55.133874 V 113.36775 H 36.106099 v 23.97284 z"
           id="path307"
           style="clip-rule:evenodd;stroke-width:0.264583;stroke-linejoin:round;stroke-miterlimit:1.414" /></g></g></g><style
     type="text/css"
     id="style281">
    .button {stroke: none; fill: orange;}
    .symbol {stroke: none; fill: white;}
  </style></svg>
