<?xml version="1.0" encoding="UTF-8" standalone="no"?>
<!-- Created with Inkscape (http://www.inkscape.org/) -->

<svg
   width="570"
   height="350"
   viewBox="0 0 150.81249 92.604169"
   version="1.1"
   id="svg303"
   xml:space="preserve"
   inkscape:version="1.2.2 (b0a8486541, 2022-12-01)"
   sodipodi:docname="hero.svg"
   inkscape:export-filename="hero.png"
   inkscape:export-xdpi="500"
   inkscape:export-ydpi="500"
   xmlns:inkscape="http://www.inkscape.org/namespaces/inkscape"
   xmlns:sodipodi="http://sodipodi.sourceforge.net/DTD/sodipodi-0.dtd"
   xmlns:xlink="http://www.w3.org/1999/xlink"
   xmlns="http://www.w3.org/2000/svg"
   xmlns:svg="http://www.w3.org/2000/svg"
   xmlns:rdf="http://www.w3.org/1999/02/22-rdf-syntax-ns#"
   xmlns:cc="http://creativecommons.org/ns#"
   xmlns:dc="http://purl.org/dc/elements/1.1/"><sodipodi:namedview
     id="namedview305"
     pagecolor="#ffffff"
     bordercolor="#666666"
     borderopacity="1.0"
     inkscape:showpageshadow="2"
     inkscape:pageopacity="0.0"
     inkscape:pagecheckerboard="0"
     inkscape:deskcolor="#d1d1d1"
     inkscape:document-units="mm"
     showgrid="false"
     inkscape:zoom="0.4204826"
     inkscape:cx="154.58428"
     inkscape:cy="190.25757"
     inkscape:window-width="1128"
     inkscape:window-height="683"
     inkscape:window-x="0"
     inkscape:window-y="0"
     inkscape:window-maximized="1"
     inkscape:current-layer="layer1" /><defs
     id="defs300"><linearGradient
       id="Gradient"
       x1="0"
       x2="0"
       y1="0"
       y2="256"
       gradientUnits="userSpaceOnUse"><stop
         offset="0%"
         style="stop-color:#DC8ADD;stop-opacity:1"
         id="stop520" /><stop
         offset="100%"
         style="stop-color:#DC8ADD;stop-opacity:1"
         id="stop522" /></linearGradient><filter
       id="alpha-to-white"
       x="0"
       y="0"
       width="1"
       height="1"><feColorMatrix
         in="SourceGraphic"
         type="matrix"
         values="0 0 0 1 0                              0 0 0 1 0                              0 0 0 1 0                              0 0 0 1 0"
         id="feColorMatrix525" /></filter><g
       id="child-svg"><svg
         width="16"
         version="1.1"
         id="svg7384"
         height="16"><metadata
           id="metadata90"><rdf:RDF><cc:Work
               rdf:about=""><dc:format>image/svg+xml</dc:format><dc:type
                 rdf:resource="http://purl.org/dc/dcmitype/StillImage" /></cc:Work></rdf:RDF></metadata><title
           id="title9167">Gnome Symbolic Icon Theme</title><defs
           id="defs7386" /><path
           id="path952"
           d="M 2,2 C 0.892,2 0,2.892 0,4 v 8 c 0,1.108 0.892,2 2,2 H 7 V 12 H 2 V 4 h 12 v 2 h 2 V 4 C 16,2.892 15.108,2 14,2 Z"
           style="display:inline;opacity:1;vector-effect:none;fill:#241f31;fill-opacity:1;stroke:none;stroke-width:1;stroke-linecap:square;stroke-linejoin:round;stroke-miterlimit:4;stroke-dasharray:none;stroke-dashoffset:0;stroke-opacity:1;enable-background:new" /><path
           style="display:inline;fill:#241f31;fill-opacity:1;stroke:none;stroke-width:2;enable-background:new"
           clip-path="none"
           d="M 11,6 C 8.83336,6 6.98018,6.73878 6,8 v 1 h 2 c 0.78878,-0.60652 1.7588701,-1 3,-1 1.24113,0 2.21938,0.39348 3,1 h 2 V 8 C 15.00522,6.7771 13.1266,6 11,6 Z m 0,3 C 9.7426701,9 8.78429,9.31165 8,10 v 1 H 11 11.375 14 V 10 C 13.1631,9.32794 12.25733,9 11,9 Z m 0,3 c -1.1045699,0 -2,0.89543 -2,2 0,1.10457 0.8954301,2 2,2 1.10457,0 2,-0.89543 2,-2 0,-1.10457 -0.89543,-2 -2,-2 z"
           id="path6305-7" /></svg></g><clipPath
       clipPathUnits="userSpaceOnUse"
       id="clipPath1171"><rect
         style="opacity:0.369117;fill:#000000;stroke-width:1.88976;stroke-miterlimit:0;paint-order:stroke markers fill"
         id="rect1173"
         width="255.99998"
         height="255.99998"
         x="-1.2598425e-06"
         y="-1.2598425e-06"
         ry="49.378918" /></clipPath></defs><g
     inkscape:label="Layer 1"
     inkscape:groupmode="layer"
     id="layer1"><g
       id="g559"
       transform="matrix(0.31675733,0,0,0.31675733,34.861314,5.7571477)"
       clip-path="url(#clipPath1171)"><rect
         width="256"
         height="256"
         fill="url(#Gradient)"
         ry="0"
         x="0"
         y="0"
         id="rect537"
         style="fill:url(#Gradient)" /><use
         xlink:href="#child-svg"
         filter="url(#alpha-to-white)"
         transform="matrix(8,0,0,8,64,64)"
         id="use539" /></g></g></svg>
